<?xml version="1.0" standalone="no"?>
<!DOCTYPE svg PUBLIC "-//W3C//DTD SVG 1.1//EN" "http://www.w3.org/Graphics/SVG/1.1/DTD/svg11.dtd" >
<svg xmlns="http://www.w3.org/2000/svg">
<metadata>
Created by FontForge 20120731 at Mon Dec 12 17:31:40 2016
 By admin
</metadata>
<defs>
<font id="iconfont" horiz-adv-x="1024" >
  <font-face 
    font-family="iconfont"
    font-weight="500"
    font-stretch="normal"
    units-per-em="1024"
    panose-1="2 0 6 3 0 0 0 0 0 0"
    ascent="896"
    descent="-128"
    x-height="792"
    bbox="10 -212 1218 924"
    underline-thickness="0"
    underline-position="0"
    unicode-range="U+0078-E88E"
  />
<missing-glyph 
 />
    <glyph glyph-name=".notdef" 
 />
    <glyph glyph-name=".notdef" 
 />
    <glyph glyph-name=".null" horiz-adv-x="0" 
 />
    <glyph glyph-name="nonmarkingreturn" horiz-adv-x="341" 
 />
    <glyph glyph-name="x" unicode="x" horiz-adv-x="1001" 
d="M281 543q-27 -1 -53 -1h-83q-18 0 -36.5 -6t-32.5 -18.5t-23 -32t-9 -45.5v-76h912v41q0 16 -0.5 30t-0.5 18q0 13 -5 29t-17 29.5t-31.5 22.5t-49.5 9h-133v-97h-438v97zM955 310v-52q0 -23 0.5 -52t0.5 -58t-10.5 -47.5t-26 -30t-33 -16t-31.5 -4.5q-14 -1 -29.5 -0.5
t-29.5 0.5h-32l-45 128h-439l-44 -128h-29h-34q-20 0 -45 1q-25 0 -41 9.5t-25.5 23t-13.5 29.5t-4 30v167h911zM163 247q-12 0 -21 -8.5t-9 -21.5t9 -21.5t21 -8.5q13 0 22 8.5t9 21.5t-9 21.5t-22 8.5zM316 123q-8 -26 -14 -48q-5 -19 -10.5 -37t-7.5 -25t-3 -15t1 -14.5
t9.5 -10.5t21.5 -4h37h67h81h80h64h36q23 0 34 12t2 38q-5 13 -9.5 30.5t-9.5 34.5q-5 19 -11 39h-368zM336 498v228q0 11 2.5 23t10 21.5t20.5 15.5t34 6h188q31 0 51.5 -14.5t20.5 -52.5v-227h-327z" />
    <glyph glyph-name="shezhi" unicode="&#xe631;" horiz-adv-x="1000" 
d="M844 306h70v176h-70q-53 0 -64 27t26 64l50 50l-125 125l-49 -50q-38 -37 -65 -26t-27 64v0v70h-176v-70q0 -53 -27 -64t-64 26l-50 50l-125 -125l50 -50q37 -37 26 -64t-64 -27h-70v-176h70q53 0 64 -27t-26 -65l-50 -49l125 -125l50 50q37 37 64 26t27 -64v-70h176v69
v1q0 53 27 64t65 -26l49 -50l125 125l-50 49q-37 38 -26 65t64 27zM502 239q-64 0 -109 45.5t-45 109.5t45 109t109 45t109.5 -45t45.5 -109t-45.5 -109.5t-109.5 -45.5z" />
    <glyph glyph-name="paymentinfo2" unicode="&#xe66a;" 
d="M879 741h-736q-33 0 -57 -23.5t-24 -57.5v-90h898v90q0 34 -23.5 57.5t-57.5 23.5zM62 111q0 -33 24 -56.5t57 -23.5h736q34 0 57.5 23.5t23.5 56.5v339h-898v-339v0zM797 230h66v-76h-66v76zM711 230h67v-76h-67v76zM629 230h67v-76h-67v76z" />
    <glyph glyph-name="feiji2" unicode="&#xe639;" 
d="M951.5 788.5q-4.5 3.5 -9.5 0.5l-868 -444q-5 -3 -4.5 -9t6.5 -7l290 -93q5 -1 9 2l402 362l-321 -380q-3 -3 -1.5 -8t5.5 -6l323 -98q1 -1 2 -1q3 0 5 2q3 2 4 5l161 665q1 6 -3.5 9.5zM554 136l-89 27q-4 1 -7.5 -1.5t-3.5 -7.5v-168q0 -7 6 -8q1 -1 3 -1q5 0 7 4
l89 141q3 4 1.5 8t-6.5 6z" />
    <glyph glyph-name="xiazai" unicode="&#xe62c;" 
d="M169 575h259v256h193v-256h255l-354 -381zM875 192v-62h-705v62h-66v-190h833v190h-62z" />
    <glyph glyph-name="mail" unicode="&#xe613;" 
d="M192 744h640q50 0 85 -35t35 -85v-480q0 -50 -35 -85t-85 -35h-640q-50 0 -85 35t-35 85v480q0 50 35 85t85 35zM872 144v437l-335 -268q-11 -9 -25 -9t-25 9l-335 268v-437q0 -17 11.5 -28.5t28.5 -11.5h640q17 0 28.5 11.5t11.5 28.5v0zM832 664h-640q-6 0 -13 -2
l333 -267l333 267q-7 2 -13 2v0z" />
    <glyph glyph-name="shezhi2" unicode="&#xe632;" 
d="M512 199q-76 0 -130 54t-54 130.5t54 130.5t130 54t130 -54t54 -130.5t-54 -130.5t-130 -54zM512 507q-51 0 -87.5 -36t-36.5 -87.5t36.5 -87.5t87.5 -36t87.5 36t36.5 87.5t-36.5 87.5t-87.5 36zM582 770v-41q0 -22 12 -40.5t33 -27.5q13 -5 28 -5q30 0 52 21l26 26
l98 -98l-26 -26q-15 -16 -19.5 -38t4 -42.5t27 -33t40.5 -12.5h40v-139h-40q-22 0 -40.5 -12.5t-27 -33t-4 -42.5t19.5 -38l26 -26l-98 -99l-26 26q-22 22 -52 22q-15 0 -28 -6q-21 -8 -33 -26.5t-12 -41.5v-39h-140v39q0 23 -12 41.5t-33 26.5q-13 6 -28 6q-30 0 -52 -22
l-26 -26l-98 99l26 26q15 16 19.5 38t-4 42.5t-27 33t-40.5 12.5h-40v139h40q22 0 40.5 12.5t27 33t4 42.5t-19.5 38l-26 26l98 98l26 -26q22 -21 52 -21q15 0 28 5q21 9 33 27.5t12 40.5v41h140zM582 831h-140q-24 0 -42 -19.5t-18 -45.5v-37q0 -8 -8 -11q-3 -1 -5 -1
q-5 0 -9 3l-26 26q-18 18 -43 18t-43 -18l-98 -98q-18 -18 -18 -43.5t18 -42.5l26 -26q6 -6 2.5 -14t-11.5 -8h-37q-25 0 -44 -18t-19 -43v-139q0 -25 19 -43t44 -18h37q8 0 11.5 -8t-2.5 -14l-26 -26q-18 -18 -18 -43t18 -43l98 -99q18 -17 43 -17t43 17l26 26q4 4 9 4
q2 0 5 -1q8 -3 8 -12v-36q0 -26 18 -45t42 -19h140q24 0 42 19t18 45v36q0 9 8 12q3 1 5 1q5 0 9 -4l26 -26q18 -17 43 -17t43 17l98 99q18 18 18 43t-18 43l-26 26q-6 6 -2.5 14t11.5 8h37q25 0 44 18t19 43v139q0 25 -19 43t-44 18h-37q-8 0 -11.5 8t2.5 14l26 26
q18 17 18 42.5t-18 43.5l-98 98q-18 18 -43 18t-43 -18l-26 -26q-4 -3 -9 -3q-2 0 -5 1q-8 3 -8 11v37q0 26 -18 45.5t-42 19.5v0z" />
    <glyph glyph-name="close" unicode="&#xe601;" 
d="M847 797l-335 -335l-335 335q-14 14 -33 14t-32.5 -13.5t-13.5 -32.5t13 -33l336 -335l-336 -335q-13 -14 -13 -33t13.5 -32.5t32.5 -13.5t33 13l335 335l335 -335q14 -13 33 -13t32.5 13.5t13.5 32.5t-13 33l-336 335l336 335q13 14 13 33t-13.5 32.5t-32.5 13.5
t-33 -14z" />
    <glyph glyph-name="pinterest" unicode="&#xe614;" 
d="M303 318q14 25 14.5 45t-7 32t-17 29.5t-12.5 33.5q-8 52 7.5 100t46.5 83t75 58t89.5 29t92.5 -9t83 -51q24 -25 36.5 -66.5t11.5 -87t-14 -91t-34.5 -80t-55.5 -53t-74 -10.5q-37 8 -49.5 32.5t-5 57t18.5 71t21 72t3 62t-36 39.5q-36 15 -66.5 -3.5t-44.5 -53
t-14.5 -76.5t17.5 -71q-6 -30 -16.5 -70t-18.5 -69.5t-17.5 -71t-13 -74.5t-5 -78.5t5.5 -84.5q29 21 50.5 51.5t36.5 71.5t24 76t19 87q10 -6 26.5 -17.5t26 -17.5t26 -12t34.5 -7q55 -4 103 15.5t81 56.5t56.5 87t29 105.5t-0.5 112.5q-11 81 -65 138t-133 80.5t-168 13.5
q-72 -8 -135 -45.5t-105.5 -102.5t-45.5 -143q-6 -167 119 -194z" />
    <glyph glyph-name="search" unicode="&#xe602;" 
d="M16 862v0v0zM923 17h1l-240 242q72 89 76 200q3 67 -20.5 132t-69.5 113q-39 42 -91 69.5t-110 34.5q-21 3 -44 3q-56 0 -108.5 -18.5t-95.5 -52.5q-50 -37 -83 -92t-43 -117q-7 -39 -4.5 -77.5t13.5 -76.5t31 -71q41 -72 108 -115q63 -42 138 -51q11 -2 22 -3t22 -1
q106 0 193 61l239 -241l5 -4q6 -5 13 -7.5t15 -2.5q19 0 32 13.5t13 31.5q0 17 -12 30v0zM680 346q-15 -30 -36.5 -56t-48.5 -45.5t-58 -33t-64 -19.5q-63 -11 -125 6q-59 17 -107 57.5t-73 97.5q-30 62 -26.5 134.5t38.5 131.5q31 55 84 91t115 46l6 1q5 1 9 1q15 2 31 2
q64 0 120 -26q33 -16 61.5 -39.5t50 -53.5t33.5 -64q23 -56 20 -117t-30 -114v0z" />
    <glyph glyph-name="xiazai3" unicode="&#xe62d;" 
d="M521 170h-12l-255 354h142v272h238v-272h142l-255 -354v0zM297 502l218 -303l218 303h-121v272h-195v-272h-120v0zM906 14h-788v265h105v-159h578v159h105v-265v0zM139 36h746v222h-62v-159h-622v159h-62v-222v0z" />
    <glyph glyph-name="gouwuche" unicode="&#xe60b;" 
d="M894 667h-636l-11 91q-1 11 -10 19t-20 8h-6q-4 0 -8 -1h-77q-14 0 -23.5 -9t-9.5 -21.5t9.5 -21t23.5 -8.5h65l62 -514q1 -11 10 -19t20 -8h7q3 0 7 1h514q14 0 23.5 9t9.5 21.5t-9.5 21t-23.5 8.5h-502l-7 63h511q11 0 21 8t12 19l70 306q2 11 -4 19t-18 8zM308 52
q0 -30 21.5 -51t51.5 -21t51.5 21t21.5 51t-21.5 51.5t-51.5 21.5t-51.5 -21.5t-21.5 -51.5zM668 52q0 -30 21.5 -51t51.5 -21t51.5 21t21.5 51t-21.5 51.5t-51.5 21.5t-51.5 -21.5t-21.5 -51.5z" />
    <glyph glyph-name="jiantou-down" unicode="&#xe604;" 
d="M917 550q10 -13 11 -27t-8 -21l-392 -305q-1 -1 -6.5 -4.5t-5.5 -4.5q-11 -12 -25 -15.5t-22 4.5l-369 332q-8 8 -6.5 22t12.5 26t25 15t22 -4l335 -303l383 299q9 7 22.5 3t23.5 -17z" />
    <glyph glyph-name="liwu" unicode="&#xe620;" 
d="M885 662h-196q14 25 14 52q0 43 -30 73.5t-73 30.5q-47 0 -78 -36q-32 36 -78 36q-43 0 -73.5 -30.5t-30.5 -73.5q0 -27 14 -52h-196q-21 0 -36.5 -15.5t-15.5 -36.5v-52q0 -22 15.5 -37t36.5 -15v-415q0 -43 30.5 -73.5t73.5 -30.5h519q43 0 73.5 30.5t30.5 73.5v415
q22 0 37 15t15 37v52q0 21 -15 36.5t-37 15.5zM599.5 766q21.5 0 36.5 -15.5t15 -37t-15 -36.5t-36.5 -15t-36.5 15t-15 36.5t15 37t36.5 15.5zM443.5 766q21.5 0 37 -15.5t15.5 -37t-15.5 -36.5t-37 -15t-36.5 15t-15 36.5t15 37t36.5 15.5zM496 39h-234q-21 0 -36.5 15
t-15.5 37v155h286v-207zM496 298h-286v208h286v-208zM833 91q0 -22 -15 -37t-37 -15h-233v207h285v-155zM833 298h-285v208h285v-208zM859 558h-675q-11 0 -18.5 7.5t-7.5 18.5t7.5 18.5t18.5 7.5h675q11 0 18.5 -7.5t7.5 -18.5t-7.5 -18.5t-18.5 -7.5z" />
    <glyph glyph-name="lingdang" unicode="&#xe633;" 
d="M804 210v275q0 106 -68.5 186.5t-171.5 98.5v22q0 14 -10 24t-24 10h-34q-14 0 -24 -10t-10 -24v-22q-103 -18 -171 -98.5t-68 -186.5v-275l-119 -97v-55h819v55zM889 92h-751v5l107 87l13 10v16v275q0 106 75 181t180.5 75t181 -75t75.5 -181v-275v-16l12 -10l107 -87
v-5v0zM513.5 -61q35.5 0 60.5 25t25 60h-171q0 -35 25 -60t60.5 -25z" />
    <glyph glyph-name="delete" unicode="&#xe606;" 
d="M482 598h60v-515h-60v515zM341 598h60v-515h-60v515zM623 598h60v-515h-60v515zM872 715h-161v38q0 22 -17.5 37t-42.5 15h-278q-25 0 -42.5 -15t-17.5 -37v-38h-166v-60h63v-632q0 -25 17.5 -42t42.5 -17h484q25 0 42.5 17t17.5 42v632h58v60v0zM373 745h278v-30h-278
v30zM754 24v0l-484 -1v632h484v-631z" />
    <glyph glyph-name="xinxi" unicode="&#xe634;" 
d="M512 808q-115 0 -212.5 -50.5t-154.5 -137.5t-57 -189q0 -81 37 -154t105 -127v-145q0 -26 23 -39q10 -6 22 -6q13 0 23 7l153 92q31 -4 61 -4q115 0 212.5 50.5t154.5 137t57 188.5t-57 189t-154.5 137.5t-212.5 50.5zM512 144q-31 0 -64 6q-16 2 -30 -6l-98 -60v89
q0 23 -19 36q-59 41 -91 99.5t-32 122.5q0 78 44.5 144.5t121.5 104.5t168 38t168 -38t121.5 -104.5t44.5 -144t-44.5 -144t-121.5 -105t-168 -38.5zM333 462q-16 0 -27 -11t-11 -27t11 -27t27 -11t27 11t11 27t-11 27t-27 11zM691 462q-16 0 -27 -11t-11 -27t11 -27t27 -11
t27 11t11 27t-11 27t-27 11zM512 462q-16 0 -27 -11t-11 -27t11 -27t27 -11t27 11t11 27t-11 27t-27 11z" />
    <glyph glyph-name="jiantou-right" unicode="&#xe607;" 
d="M333 802l-60 -59l357 -360l-360 -356l60 -60l420 416z" />
    <glyph glyph-name="love" unicode="&#xe62b;" 
d="M941 511q0 107 -73.5 183.5t-176.5 76.5q-105 0 -179 -80q-74 80 -179 80q-104 0 -177 -76.5t-73 -183.5q0 -5 1 -13q-1 -2 -1 -3q0 -38 19 -83q0 -2 1 -3q20 -49 64.5 -106t87 -100t98 -90.5t79.5 -66t49 -36.5l4 -4q12 -9 26.5 -9t26.5 10l4 3q30 22 60.5 46.5
t92.5 77.5t116.5 114.5t86.5 116.5q4 6 9 17q2 4 3 4v1q0 1 1 2q9 17 14 32q16 41 16 74v4v12z" />
    <glyph glyph-name="xiazai4" unicode="&#xe62e;" 
d="M842 256l-27 -147h-605l-27 147h-67v-234h794v234h-68zM825 517h-199v85h-227v-85h-196l309 -331zM626 748h-227v-31h227v31zM626 690h-227v-59h227v59zM626 690z" />
    <glyph glyph-name="tixing" unicode="&#xe61e;" 
d="M513 -35q-114 0 -210.5 56t-152.5 152.5t-56 210.5t56 210.5t152.5 152.5t210.5 56t210.5 -56t152.5 -152.5t56 -210.5t-56 -210.5t-152.5 -152.5t-210.5 -56zM513 756q-101 0 -187 -49.5t-135.5 -135.5t-49.5 -187t49.5 -187t135.5 -136t187 -50t187 50t136 136t50 187
t-50 187t-136 135.5t-187 49.5zM513 151q-19 0 -32.5 13.5t-13.5 33t13.5 33t32.5 13.5t33 -13.5t14 -33t-14 -33t-33 -13.5zM487 291l-20 326h92l-20 -326h-52z" />
    <glyph glyph-name="upload2" unicode="&#xe646;" 
d="M826 -11h-624q-36 0 -60.5 24.5t-24.5 60.5v127h56v-127q0 -12 8.5 -20.5t20.5 -8.5h624q11 0 19.5 8.5t8.5 20.5v127h57v-127q0 -36 -25 -60.5t-60 -24.5v0zM782 485h-98v-241q0 -41 -29 -70t-70 -29h-142q-41 0 -70.5 29t-29.5 70v241h-100q-14 0 -23 4.5t-10.5 10.5
t4.5 13q11 11 133.5 127.5t135.5 129.5q11 9 30 9t29 -9q221 -210 269 -257q10 -10 0 -19t-29 -9z" />
    <glyph glyph-name="icon" unicode="&#xe66c;" 
d="M720 -140q0 3 0.5 7.5t-1 18.5t-5.5 28.5t-15 35.5t-28 42q25 73 41.5 154.5t20 117t3.5 44.5q5 -1 12.5 -4t28 -14t35.5 -26t27.5 -42.5t12.5 -61.5q0 -163 -102 -272q-17 -18 -30 -28zM399 -68q-9 30 -22 76t-35 145.5t-22 147.5q0 67 14 131h356q13 -64 13 -131
q0 -104 -77 -367l-1 -2h-226zM512 373q-30 0 -51.5 -22t-21.5 -53.5t21.5 -53.5t51.5 -22t51 22t21 53.5t-21 53.5t-51 22zM496 709v103h28v-100q17 -12 34.5 -29.5t42 -48t47 -76t35.5 -98.5h-343q14 51 35 95.5t45 75t41.5 48t34.5 30.5zM304 -140q-5 4 -14 12t-32 35.5
t-40.5 59t-31.5 84t-14 109.5q0 25 6 46t16.5 36t23 26.5t25 19t22.5 12t17 6.5l6 2q1 -17 4 -46.5t19.5 -113t41.5 -156.5q-26 -32 -38.5 -65t-11.5 -50zM560 -155l-24 25l-25 -82l-30 82l-21 -43l-30 77h163z" />
    <glyph glyph-name="23videos" unicode="&#xe600;" 
d="M917 0h-810q-36 0 -61 25t-25 60v598q0 35 25 60t61 25h810q36 0 61 -25t25 -60v-598q0 -35 -25 -60t-61 -25zM256 725h-149q-18 0 -30.5 -12.5t-12.5 -29.5v-43h192v85zM491 725h-192v-85h192v85zM725 725h-192v-85h192v85zM960 683q0 17 -12.5 29.5t-30.5 12.5h-149
v-85h192v0v43zM960 597v0h-896v-426h896v0v426zM960 128v0h-192v-85h-43v85h-192v-85h-42v85h-192v-85h-43v85h-192v-43q0 -17 12.5 -29.5t30.5 -12.5h810q18 0 30.5 12.5t12.5 29.5v43zM461 261q-6 -5 -13 -5q-9 0 -15 6t-6 15v214q0 9 6 15t15 6q6 0 12 -4l166 -104
q14 -5 14 -20q0 -10 -9 -17z" />
    <glyph glyph-name="facebook" unicode="&#xe608;" 
d="M751 858v-142h-84q-46 0 -62 -19t-16 -58v-101h157l-21 -159h-136v-406h-164v406h-136v159h136v117q0 99 56 154t148 55q79 0 122 -6v0z" />
    <glyph glyph-name="renminbi" unicode="&#xe627;" horiz-adv-x="1025" 
d="M512 806q-115 0 -212 -56.5t-153.5 -153.5t-56.5 -212t56.5 -212t153.5 -153.5t212 -56.5t212 56.5t153.5 153.5t56.5 212t-56.5 212t-153.5 153.5t-212 56.5zM512 15q-100 0 -185 49.5t-134.5 134.5t-49.5 185t49.5 185t134.5 134.5t185 49.5t185 -49.5t134.5 -134.5
t49.5 -185t-49.5 -185t-134.5 -134.5t-185 -49.5zM607 543v-38h-36v-37h-38v-37h-38v37h-39v37h-36v38h-111v-38h37v-37h38v-37h36v-38h-74v-37h112v-37h-112v-37h112v-75h110v75h112v37h-112v37h112v37h-73v1v0v37h36v37h39v37h36v38h-111z" />
    <glyph glyph-name="shopping" unicode="&#xe609;" 
d="M366.5 -24q-24.5 0 -42 17t-17.5 41.5t17.5 42t42 17.5t41.5 -17.5t17 -42t-17 -41.5t-41.5 -17zM773.5 -24q-24.5 0 -42 17t-17.5 41.5t17.5 42t42 17.5t42 -17.5t17.5 -42t-17.5 -41.5t-42 -17zM359 121q-32 0 -56.5 22t-28.5 54l-50 348l-28 162q-1 10 -9 17.5
t-17 7.5h-37q-13 0 -21.5 9t-8.5 21.5t8.5 21t21.5 8.5h37q32 0 57 -22t29 -54l28 -162l49 -349q2 -9 9.5 -16.5t16.5 -7.5h472q13 0 21.5 -8.5t8.5 -21t-8.5 -21.5t-21.5 -9h-472v0zM395 238q-12 0 -20.5 8t-9.5 19q-1 13 7 22.5t21 10.5l395 29q10 0 18 6.5t9 16.5l46 262
q2 17 -7 27q-6 6 -13 6h-504q-13 0 -21.5 9t-8.5 21t8.5 21t21.5 9h504q34 0 58 -26q27 -31 21 -75l-45 -262q-4 -32 -28.5 -53.5t-56.5 -21.5z" />
    <glyph glyph-name="product" unicode="&#xe610;" 
d="M936 7l-32 487q0 28 -19.5 46.5t-46.5 18.5h-132v77q0 82 -56 137q-56 56 -138 56q-80 0 -137 -56.5t-57 -136.5v-77h-132q-28 0 -47 -19t-19 -46l-32 -487v-1q0 -28 19.5 -47t46.5 -19h713q28 0 47 19.5t19 46.5l3 1v0zM386 635q0 52 37 88.5t89 36.5t89 -37t37 -88v-77
h-252v77zM207 504h107l2 -78q-13 -13 -13 -32q0 -24 19 -39q10 -13 27 -13t26 13q19 12 19 39q0 19 -13 32v78h255l-2 -78q-13 -13 -13 -32q0 -24 19 -39q10 -13 27 -13t26 13q19 12 19 39q0 19 -13 32l3 78h98q29 0 37.5 -7t9.5 -40q0 -55 12.5 -212t12.5 -207
q0 -16 -10.5 -29t-24.5 -13h-656h-8h-7q-21 9 -21 28q0 47 13 222t16 216q0 12 2 19.5t9.5 15t21.5 7.5z" />
    <glyph glyph-name="jian" unicode="&#xe60a;" 
d="M668 363h-313q-9 0 -15.5 6.5t-6.5 15.5t6.5 15t15.5 6h313q9 0 15 -6t6 -15t-6 -15.5t-15 -6.5zM511 -35q-114 0 -210.5 56t-153 153t-56.5 211t56.5 210.5t153 153t210.5 56.5t211 -56.5t153.5 -153t56.5 -210.5t-56.5 -211t-153.5 -153t-211 -56zM511.5 762
q-102.5 0 -189.5 -50.5t-137.5 -137.5t-50.5 -189t50.5 -189t137.5 -137.5t189.5 -50.5t189 50.5t137 137.5t50.5 189t-50.5 189t-137 137.5t-189 50.5z" />
    <glyph glyph-name="shipped" unicode="&#xe64e;" 
d="M737 215q-31 0 -53 -22t-22 -53t22 -53t53 -22t53 22t22 53t-22 53t-53 22v0zM737 103q-16 0 -26.5 11t-10.5 26.5t10.5 26.5t26.5 11t26.5 -11t10.5 -26.5t-10.5 -26.5t-26.5 -11v0zM156 215q-31 0 -53 -22t-22 -53t22 -53t53 -22t53 22t22 53t-22 53t-53 22v0zM156 103
q-16 0 -27 11t-11 26.5t11 26.5t26.5 11t26.5 -11t11 -26.5t-11 -26.5t-26 -11v0zM924 420l-93 226h-169v-375h-600v-75q35 57 94 57q61 0 96 -57h387q36 57 95.5 57t95.5 -57h94v38h38v75h-38v111zM700 609h112l75 -187h-187v187zM624 684h-562v-375h562v375zM587 346h-487
v300h487v-300zM477 609l-159 -159l-79 79l-27 -26l106 -106l186 185z" />
    <glyph glyph-name="google2" unicode="&#xe63c;" 
d="M707 131q0 14 -4 28t-8.5 24t-15.5 23.5t-16.5 20t-22 19.5t-21 16.5t-23.5 17.5t-21 15q-9 1 -28 1q-30 0 -59.5 -4t-61.5 -14.5t-55.5 -26.5t-39 -42.5t-15.5 -59.5q0 -32 13.5 -58.5t35 -43.5t49.5 -28.5t57 -16.5t58 -5q33 0 63.5 7.5t56.5 22.5t42 41.5t16 62.5z
M640 621q0 34 -9.5 72t-27.5 73.5t-48 59t-67 23.5q-24 0 -47 -11t-38 -30q-26 -34 -26 -91q0 -27 5.5 -56.5t18 -58.5t29.5 -52.5t42.5 -38.5t55.5 -15q21 0 44 9.5t38 24.5q30 32 30 91zM576 896h238l-78 -50h-75q42 -36 64 -76t22 -92q0 -41 -14 -74t-34 -53t-40 -37
t-34 -35t-14 -38t18.5 -40t44 -39t51.5 -42t44.5 -59.5t18.5 -81.5q0 -52 -28 -98q-41 -70 -120 -103t-170 -33q-76 0 -141.5 24t-98.5 78q-20 34 -20 75q0 47 25.5 86t67.5 66q75 47 231 57q-19 23 -27.5 41.5t-8.5 42.5q0 23 12 48q-27 -2 -39 -2q-85 0 -143 55t-58 140
q0 47 20.5 91t56.5 75q44 37 104.5 55.5t124.5 18.5z" />
    <glyph glyph-name="chawuliu" unicode="&#xe66d;" horiz-adv-x="1027" 
d="M917 398l-83 82q-8 8 -21.5 14t-25.5 6h-126q-11 0 -19 -8t-8 -20v-308q0 -10 6.5 -17.5t15.5 -9.5q3 51 40.5 86t89 35t88.5 -35t41 -86q9 2 15 9.5t6 17.5v187q0 27 -19 47v0zM871 320q0 -7 -4.5 -11.5t-11.5 -4.5h-143q-7 0 -11.5 4.5t-4.5 11.5v89q0 7 4.5 12t11.5 5
h73q16 0 27 -12l48 -50q11 -11 11 -28v-16zM331 216q-38 0 -64.5 -26.5t-26.5 -64t26.5 -64t64 -26.5t64 26.5t26.5 64t-26.5 64t-63.5 26.5v0zM331 80q-19 0 -32 13.5t-13 32t13 32t32 13.5t32 -13.5t13 -32t-13.5 -32t-31.5 -13.5v0zM309 125q0 -9 6.5 -15t15.5 -6t15 6
t6 15t-6 15.5t-15 6.5t-15.5 -6.5t-6.5 -15.5v0zM785 216q-38 0 -64.5 -26.5t-26.5 -64t26.5 -64t64 -26.5t64.5 26.5t27 64t-27 64t-64 26.5v0zM785 80q-19 0 -32 13.5t-13 32t13 32t32 13.5t32 -13.5t13 -32t-13 -32t-32 -13.5v0zM763 125q0 -9 6.5 -15t15.5 -6t15.5 6
t6.5 15t-6.5 15.5t-15.5 6.5t-15.5 -6.5t-6.5 -15.5v0zM546 620h-107q19 -40 19 -84q0 -80 -56.5 -137t-136.5 -57q-55 0 -101 28.5t-71 75.5v-282q0 -11 8 -19t19 -8h80q3 51 40.5 86t89 35t89 -35t40.5 -86h87q11 0 19 8t8 19v428q0 12 -8 20t-19 8v0zM265 710
q-73 0 -124 -51t-51 -123t51 -123.5t123.5 -51.5t123.5 51.5t51 123.5t-51 123t-123 51v0zM265 396q-58 0 -99 41t-41 99t41 98.5t98.5 40.5t98.5 -40.5t41 -98.5t-41 -99t-98 -41v0zM358 539h-78v63q0 6 -4 10t-10 4h-3q-6 0 -10 -4t-4 -10v-70v-2v-2q0 -4 3.5 -7t7.5 -3
h98q5 0 8 3t3 7.5t-3 7.5t-8 3v0zM358 539z" />
    <glyph glyph-name="zanting" unicode="&#xe61b;" 
d="M512 806q-114 0 -211.5 -56.5t-154 -154t-56.5 -211.5t56.5 -211.5t154 -154t211.5 -56.5t211.5 56.5t154 154t56.5 211.5t-56.5 211.5t-154 154t-211.5 56.5zM512 15q-100 0 -185 49.5t-134.5 134.5t-49.5 185t49.5 185t134.5 134.5t185 49.5t185 -49.5t134.5 -134.5
t49.5 -185t-49.5 -185t-134.5 -134.5t-185 -49.5zM702 417l-230 141l-4 2q-18 8 -38 8q-25 0 -39.5 -15t-14.5 -41v-267l1 -4q5 -15 18.5 -27.5t33.5 -12.5v0q15 0 31 9l231 130q14 10 19.5 27.5t-4.5 43.5zM435 256q-3 -2 -5 -2q-1 0 -2 1v257q0 2 1 3q7 0 17 -3l212 -130z
" />
    <glyph glyph-name="jiantou-up" unicode="&#xe60c;" 
d="M512 595l-422 -422h112l310 310l310 -310h112z" />
    <glyph glyph-name="jia" unicode="&#xe60d;" 
d="M514 811q-116 0 -215.5 -57.5t-157 -157t-57.5 -216t57.5 -216t157 -157t216 -57.5t216 57.5t157 157t57.5 216t-57.5 216t-157 157t-216.5 57.5v0zM514 -5q-104 0 -193 52t-140.5 140.5t-51.5 193t51.5 193.5t140.5 140.5t193.5 51.5t193 -51.5t140.5 -140.5t52 -193.5
t-52 -193t-140.5 -140.5t-193.5 -52v0zM677 412h-132v131q0 9 -10 16t-20 7t-20.5 -7t-10.5 -16v-131h-132q-9 0 -16 -10.5t-7 -20.5t7 -20t16 -10h132v-133q0 -9 10.5 -16t20.5 -7t20 7t10 16v133h132q9 0 15.5 10t6.5 20t-6.5 20.5t-15.5 10.5v0zM677 412z" />
    <glyph glyph-name="bianji" unicode="&#xe663;" 
d="M768 -65h-578q-40 0 -68.5 28.5t-28.5 68.5v642q0 40 28.5 68.5t68.5 28.5h450q13 0 22.5 -9.5t9.5 -23t-9.5 -23t-22.5 -9.5h-450q-14 0 -23 -9.5t-9 -22.5v-642q0 -14 9 -23.5t23 -9.5h578q13 0 22.5 9.5t9.5 23.5v514q0 13 9.5 22.5t23 9.5t22.5 -9.5t9 -22.5v-514
q0 -40 -28 -68.5t-68 -28.5v0zM579 449q-13 0 -22.5 9.5t-9.5 23t10 22.5l319 319q9 10 22.5 10t23 -9.5t9.5 -23t-10 -22.5l-319 -319q-9 -10 -23 -10v0zM447 449h-193q-13 0 -22.5 9.5t-9.5 23t9.5 23t22.5 9.5h193q13 0 22.5 -9.5t9.5 -23t-9.5 -23t-22.5 -9.5v0z
M640 256h-386q-13 0 -22.5 9.5t-9.5 23t9.5 23t22.5 9.5h386q13 0 22.5 -9.5t9.5 -23t-9.5 -23t-22.5 -9.5v0zM640 256z" />
    <glyph glyph-name="invite" unicode="&#xe660;" 
d="M961 152q0 -13 -9 -22t-22 -9h-111v-111q0 -12 -9 -21t-21.5 -9t-21.5 9t-9 21v111h-111q-13 0 -22 9t-9 22t9 22t22 9h111v110q0 13 9 22t21.5 9t21.5 -9t9 -22v-110h111q13 0 22 -9t9 -22zM775 558q0 -62 -28.5 -118t-78.5 -92q-17 -12 -33 -21q-57 -30 -121 -30
q-59 0 -112 26l-2 1l-3 -1q-122 -36 -195 -126t-73 -204v-20v0q0 -13 -9.5 -22t-22.5 -9t-22.5 9.5t-9.5 22.5v19q0 121 70.5 221t190.5 151l8 4l-6 6q-74 76 -74 183t76 183.5t184 76.5t184.5 -76.5t76.5 -183.5zM711 558q0 81 -58 138.5t-139 57.5t-138.5 -57.5
t-57.5 -138.5q0 -52 26 -97.5t71 -72.5q18 -10 38 -17q30 -10 61 -10t61 10q20 6 38 17q45 27 71.5 72.5t26.5 97.5z" />
    <glyph glyph-name="air3" unicode="&#xe65b;" 
d="M512.5 -75q93.5 0 179 36.5t147 98t98 147t36.5 178.5t-36.5 178.5t-98 147t-147 98t-179 36.5t-178.5 -36.5t-146.5 -98t-98 -147t-36.5 -178.5t36.5 -178.5t98 -147t146.5 -98t178.5 -36.5zM512.5 807q114.5 0 211.5 -56.5t153.5 -154t56.5 -211.5t-56.5 -211.5
t-153.5 -154t-211.5 -56.5t-211.5 56.5t-153.5 154t-56.5 211.5t56.5 211.5t153.5 154t211.5 56.5zM401 338l-101 20l-40 -41l115 -79l66 -106l40 41l-13 97l80 76l78 -218l66 67l-42 242l79 79q22 22 32 42t8 34t-6 22t-9 14q-18 19 -47.5 12.5t-61.5 -38.5l-79 -79
l-243 47l-66 -67l219 -81zM320 517l14 15l244 -47l92 92q30 30 49 30q6 0 10 -4q18 -19 -24 -62l-93 -92l42 -242l-14 -14l-77 215l-132 -125l12 -88l-41 65l-82 58l94 -18l123 137z" />
    <glyph glyph-name="feiji" unicode="&#xe635;" 
d="M421 11h38v180q-1 20 10 33l421 491q-115 -586 -116 -594q-2 -9 -11 -6q-3 1 -64.5 20t-121.5 37.5l-60 18.5l-12 -37q228 -71 250 -78q19 -5 35.5 5.5t20.5 31.5q2 10 63 321t62 317q3 7 1.5 18t-13.5 17q-7 3 -13.5 1t-11.5 -5l-5 -3l-5 10q-769 -411 -796 -426
q-20 -11 -20.5 -29.5t17.5 -23.5q6 -2 35 -11.5t65 -21t71.5 -23t59.5 -19.5l24 -8l12 37l-230 73l718 384q-384 -447 -400 -465q-24 -28 -24 -61v-13v-20.5v-25v-28.5v-28.5v-26.5v-21.5v-15v-5.5v0z" />
    <glyph glyph-name="weizhi" unicode="&#xe63d;" 
d="M511.5 871q-98.5 0 -182 -48t-132 -131.5t-48.5 -182.5q0 -53 48.5 -157t110.5 -201.5t121.5 -171t81.5 -73.5t82 74t122 171.5t110 201.5t48 156q0 99 -48.5 182.5t-131.5 131.5t-181.5 48zM511 -3q-18 0 -68 62.5t-101.5 145.5t-91.5 171.5t-40 132.5q0 125 88 213.5
t213 88.5t213.5 -88.5t88.5 -213.5q0 -43 -40.5 -131.5t-92 -171.5t-101.5 -146t-68 -63zM511.5 660q-62.5 0 -107 -44t-44.5 -106.5t44.5 -106.5t107 -44t106.5 44t44 106.5t-44 106.5t-106.5 44zM511.5 419q-37.5 0 -64 26.5t-26.5 64t26.5 64t64 26.5t64 -26.5t26.5 -64
t-26.5 -64t-64 -26.5z" />
    <glyph glyph-name="home" unicode="&#xe673;" horiz-adv-x="1051" 
d="M830 311q-21 0 -21 -32v-290h-534v290q0 10 -1 16t-5.5 11t-12.5 5q-24 0 -24 -32v-300q0 -14 9.5 -23.5t23.5 -9.5h554q13 0 23 9.5t10 23.5v300q0 32 -22 32v0zM969 418l-415 407q-9 9 -22 9t-22 -9l-416 -407q-10 -9 -10.5 -22.5t8.5 -23.5q3 -3 7 1.5t8.5 11t8.5 6.5
q13 0 22 8l394 387l392 -387q3 -2 9 -8.5t9.5 -10t10 -8.5t9.5 -4t8 4q10 10 9.5 23.5t-10.5 22.5v0z" />
    <glyph glyph-name="share" unicode="&#xe60e;" 
d="M603 738l330 -330l-330 -331v189q-6 1 -18.5 1.5t-50 -1t-75 -7.5t-89.5 -22t-98.5 -40.5t-97 -67.5t-88.5 -99q0 7 2 18.5t10.5 47t19.5 70t33 81t48 86.5t66.5 81t87.5 70t112 47t138 18v189z" />
    <glyph glyph-name="youtube" unicode="&#xe60f;" horiz-adv-x="1025" 
d="M956 572q0 60 -38 101.5t-92 41.5q-135 7 -298 7h-16h-16q-163 0 -298 -7q-54 0 -92 -42t-38 -101q-6 -91 -6 -188q0 -95 6 -188q0 -59 38 -101t92 -42q150 -7 314 -7q163 0 314 7q54 0 92 42t38 101q6 93 6 189q0 93 -6 187zM426 212v345l255 -172z" />
    <glyph glyph-name="shijian" unicode="&#xe669;" 
d="M569.5 740q-105.5 0 -195.5 -52.5t-142 -143t-52 -196.5t52 -196.5t142 -143t195.5 -52.5t195 52.5t142 143t52.5 196.5t-52.5 196.5t-142 143t-195 52.5zM569.5 31q-85.5 0 -158.5 42.5t-115 115.5t-42 159t42 159.5t115 116t158.5 42.5t158 -42.5t115 -116t42.5 -159.5
t-42.5 -159t-115 -115.5t-158 -42.5zM774 330h-186v224q0 16 -10.5 27t-26 11t-26.5 -11t-11 -27v-261q0 -16 11 -27t26 -11h223q15 0 26 11t11 26.5t-11 26.5t-26 11zM326 741q14 7 19 21.5t-1.5 28.5t-21 19t-28.5 -2q-162 -78 -229 -260q-6 -14 0.5 -28t21.5 -20
q6 -2 12 -2q26 0 35 24q57 154 192 219z" />
    <glyph glyph-name="yingyong" unicode="&#xe65e;" 
d="M418 149v0v141h-142q-58 0 -99.5 -41t-41.5 -99.5t41.5 -100t100 -41.5t100 41.5t41.5 99.5v0zM488 149q0 -88 -62 -150t-149.5 -62t-149.5 62t-62 150t62 150t149 62h142h70v-71v-141zM606 149v141h141q59 0 100 -41t41 -99.5t-41 -100t-99.5 -41.5t-100 41.5
t-41.5 99.5zM535 149q0 -88 62 -150t150 -62t150 62t62 150t-62 150t-150 62h-141h-71v-71v-141zM418 620v-141h-142q-58 0 -99.5 41t-41.5 99.5t41.5 100t100 41.5t100 -41.5t41.5 -99.5zM488 620q0 87 -62 149.5t-149.5 62.5t-149.5 -62.5t-62 -150t62 -149.5t149 -62h142
h70v71v141zM606 620v-141h141q59 0 100 41t41 99.5t-41 100t-99.5 41.5t-100 -41.5t-41.5 -99.5zM535 620v0q0 87 62 149.5t150 62.5t150 -62.5t62 -150t-62 -149.5t-150 -62h-141h-71v71v141z" />
    <glyph glyph-name="google" unicode="&#xe611;" 
d="M623 772h-207q-112 0 -179 -54q-31 -26 -47.5 -61t-16.5 -70q0 -62 45.5 -108t120.5 -46q11 0 32 2q-10 -24 -10 -38t5.5 -28t10 -20t14.5 -19q-130 -8 -191 -45q-41 -24 -59 -56.5t-18 -63.5q0 -58 56 -99t159 -41q123 0 193.5 55.5t70.5 129.5q0 25 -6 44.5t-20.5 37
t-25.5 28t-32 28.5l-36 27q-26 21 -26 42q0 10 5 20t9 14.5t14 13.5q20 16 31.5 26.5t25.5 27.5t20.5 38t6.5 47t-7.5 48.5t-20.5 39.5t-21.5 25.5t-21.5 18.5h62zM535 172q0 -47 -39 -76t-109 -29q-79 0 -127.5 33t-48.5 86q0 70 86 101q48 16 105 16q15 0 23 -1
q64 -44 87 -69.5t23 -60.5zM455 488q-29 -28 -69 -28t-70 31t-42.5 69.5t-12.5 74.5q0 46 22 72q27 32 70 32q39 0 69 -31t43.5 -71t13.5 -78q1 -47 -24 -71zM832 636v102h-67v-102h-101v-67h101v-100h67v100h100v67h-100z" />
    <glyph glyph-name="upload" unicode="&#xe647;" 
d="M796 430q0 1 0.5 3.5t0.5 3.5q0 97 -68 166t-164 69q-68 0 -124 -37t-84 -97q-26 13 -54 13q-44 0 -77 -29t-41 -72q-53 -19 -87 -66t-34 -106q0 -75 52.5 -128.5t126.5 -53.5h205v160h-96l160 167l160 -167h-96v-160h221q67 0 115 49t48 118t-48 117.5t-116 49.5z" />
    <glyph glyph-name="jiajia" unicode="&#xe612;" 
d="M924 325h-353v-353h-118v353h-353v118h353v353h118v-353h353v-118z" />
    <glyph glyph-name="xinxi2" unicode="&#xe636;" 
d="M894 568q-32 63 -90 112q-121 103 -292 103t-292 -103q-58 -49 -90 -112q-33 -67 -33 -140q0 -105 67 -193q61 -80 160 -123q3 -31 -20 -63q-14 -20 -3 -42t36 -22h2q45 2 90.5 21.5t67.5 35.5t40 32q160 8 272 106q57 50 87.5 114t30.5 134q0 73 -33 140zM526 121h-10
l-7 -7l-8 -8t-21.5 -17t-34 -22.5t-43 -20t-50.5 -12.5q30 50 16 102l-3 11l-11 4q-95 39 -152 114t-57 163q0 83 49 154t134 112t184.5 41t184 -41t133.5 -112t49 -154q0 -82 -46.5 -151.5t-128 -111t-178.5 -44.5zM719 505h-349q-10 0 -17 -7t-7 -17t7 -17t17 -7h349
q10 0 17 7t7 17t-7 17t-17 7zM580 385h-210q-10 0 -17 -7t-7 -17t7 -17t17 -7h210q10 0 17 7t7 17t-7 17t-17 7z" />
    <glyph glyph-name="iconmingxin" unicode="&#xe603;" 
d="M512 804q-114 0 -210.5 -56.5t-153 -153t-56.5 -210.5t56.5 -210.5t153 -153t210.5 -56.5t210.5 56.5t153 153t56.5 210.5t-56.5 210.5t-153 153t-210.5 56.5v0zM512 -3q-105 0 -194.5 51.5t-141 141t-51.5 194.5t51.5 194.5t141 141t194.5 51.5t194.5 -51.5t141 -141
t51.5 -194.5t-51.5 -194.5t-141 -141t-194.5 -51.5v0zM677 417q-10 11 -10 26q0 17 12.5 30t30 13t30 -13t12.5 -30q0 -16 -11 -28.5t-27 -14.5l-64 -176q-79 10 -138 10q-26 0 -50.5 -1.5t-51 -4.5t-36.5 -4l-63 177q-16 0 -28 12.5t-12 29.5q0 18 13 30.5t30.5 12.5
t30 -12.5t12.5 -30.5q0 -10 -10 -26l61 -70l26 125q-13 0 -23.5 12.5t-10.5 29.5q0 19 13.5 32.5t32.5 13.5q18 0 31.5 -13.5t13.5 -32.5q0 -27 -21 -37l43 -123h1l41 123q-18 15 -18 37q0 19 13 32.5t32 13.5t32.5 -13.5t13.5 -32.5q0 -32 -32 -42l21 -125z" />
    <glyph glyph-name="air2" unicode="&#xe65c;" 
d="M710 -66l-136 381l-140 -132l23 -170l-71 -72l-116 186l-201 138l70 72l178 -35l132 146l-385 143l115 117l427 -83l138 138q55 56 107 68t84 -22q7 -8 13 -17t10.5 -27.5t1 -39t-20 -50.5t-47.5 -61l-140 -140l74 -422l-116 -118v0zM600 424l135 -377l25 25l-74 423
l162 162q35 35 46.5 64.5t-3.5 44.5q-7 7 -18 7q-33 0 -86 -53l-161 -161l-426 82l-26 -26l381 -141l-216 -239l-165 32l145 -102l71 -114l-21 155z" />
    <glyph glyph-name="lingdang2" unicode="&#xe637;" 
d="M831 222v249q0 86 -43 153.5t-117 104.5q-14 58 -58.5 95t-100.5 37q-55 0 -97 -36t-56 -93q-77 -36 -121.5 -104.5t-44.5 -156.5v-249q-44 -10 -71 -42t-27 -76v-42q0 -28 20 -47t48 -19h282q-4 -14 -4 -21q0 -29 21 -50t50 -21t50 21t21 50q0 7 -4 21h282q28 0 48 19
t20 47v42q0 44 -27 76t-71 42zM512 791q36 0 64 -30q-32 5 -64 5q-29 0 -61 -5q25 30 61 30zM858 67l-692 -5v42q0 23 17 37t45 14h36v316q0 99 69 161.5t179 62.5t179 -62.5t69 -161.5v-277h-343q-15 0 -25.5 -10.5t-10.5 -25t10.5 -25t25.5 -10.5h437q4 -10 4 -19v-37v0z
" />
    <glyph glyph-name="shop" unicode="&#xe616;" 
d="M925 533v2q-1 2 -1 5l-71 175q-9 27 -33 42.5t-55 15.5h-493q-31 0 -54 -15t-32 -42l-75 -178l-2 -4q-8 -26 -8 -52q0 -46 23.5 -85t64.5 -61v0v0v0v0q33 -17 77 -17q77 0 126 58q49 -58 126 -58q76 0 124 58q49 -58 126 -58q46 0 79 19q40 21 63 60t23 85q0 26 -8 50z
M819 390q-21 -11 -51 -11q-58 0 -89 50q-4 8 -8 13q-11 12 -29 12t-29 -13q-4 -4 -7 -12q-15 -23 -38.5 -36.5t-49.5 -13.5q-58 0 -89 50q-4 7 -7 11q-11 13 -30 13t-28 -11q-5 -6 -9 -14q-31 -49 -89 -50q-29 0 -49 11v0v0q-26 14 -41 39t-15 54q0 17 6 34q0 1 1 3l74 176
q6 18 29 18h494q26 -1 32 -19l70 -174q0 -1 1 -3q5 -17 5 -34q0 -29 -14.5 -54t-39.5 -39zM841.5 294q-12.5 0 -21.5 -9t-9 -21v-164q0 -7 -5 -12t-12 -5h-564q-7 0 -12 5t-5 12v161q0 12 -9 21t-21 9v0q-13 0 -21.5 -9t-8.5 -21v-161q0 -32 22.5 -54.5t54.5 -22.5h564
q32 0 54.5 23t22.5 54v164q0 12 -8.5 21t-21 9zM752 504h-480q-12 0 -21 9t-9 21t9 21t21 9h480q12 0 21 -9t9 -21t-9 -21t-21 -9z" />
    <glyph glyph-name="chenggong3" unicode="&#xe665;" horiz-adv-x="1040" 
d="M156 383q0 -72 27.5 -139.5t80.5 -120t120.5 -80t139 -27.5t139 27.5t120.5 80t80.5 120t27.5 139.5t-27.5 139.5t-80.5 120.5t-120.5 80.5t-139 27.5t-139 -27.5t-120.5 -80.5t-80.5 -120.5t-27.5 -139.5v0zM234 94q-58 59 -88.5 134t-30.5 155v0q0 80 30.5 155t89 134
t133.5 89.5t155 30.5t155.5 -30.5t134 -89.5t89 -134t30.5 -155t-30.5 -155t-89 -134t-133.5 -89.5t-156 -30.5v1q-80 0 -155 30t-134 89v0v0z" />
    <glyph glyph-name="huangguan" unicode="&#xe61d;" 
d="M795 420q-16 18 -16 43q0 28 20.5 49t49 21t49.5 -21t21 -49q0 -27 -18 -47t-45 -23l-105 -287q-129 16 -226 16q-42 0 -82 -3t-83 -7.5t-60 -5.5l-103 288q-26 0 -45.5 20.5t-19.5 48.5q0 29 21 50t49.5 21t49 -21t20.5 -50q0 -16 -17 -42l101 -114l42 203
q-21 1 -38 21.5t-17 47.5q0 31 22 52.5t53 21.5q30 0 52 -21.5t22 -52.5q0 -18 -9 -35t-25 -25l69 -202h2l66 202q-29 23 -29 60q0 31 21.5 52.5t52.5 21.5q30 0 52.5 -21.5t22.5 -52.5q0 -52 -51 -69l34 -203z" />
    <glyph glyph-name="info" unicode="&#xe671;" 
d="M479 666h77v-102h-77v102zM556 118h-77v344h77v-344zM734 704q-100 71 -223 71q-106 0 -195.5 -52.5t-141.5 -142t-52 -195t52 -195t141.5 -141.5t195.5 -52t195.5 52t141.5 141.5t52 195.5q0 116 -64 213l47 33q74 -112 74 -246q0 -91 -35 -174t-95 -142.5t-142.5 -95
t-173.5 -35.5t-173.5 35.5t-142.5 95t-95 142.5t-35 173.5t35 173.5t95 142.5t142.5 95t173.5 35.5q144 0 261 -85z" />
    <glyph glyph-name="flighticonwriteimppsd" unicode="&#xe672;" 
d="M512 896q-101 0 -192.5 -39t-157.5 -105.5t-105 -158t-39 -192t39 -192t105 -157.5t157.5 -105t192.5 -39t192.5 39t157.5 105t105 157.5t39 192t-39 192t-105 158t-157.5 105.5t-192.5 39zM512 -22q-115 0 -212.5 56.5t-154.5 154.5t-57 213t57 212.5t154.5 154
t212.5 56.5t212.5 -56.5t154.5 -154t57 -212.5t-57 -213t-154.5 -154.5t-212.5 -56.5zM477 135h71v420h-71v-420zM477 629h71v71h-71v-71z" />
    <glyph glyph-name="jianjian" unicode="&#xe617;" 
d="M171 452h682q29 0 49 -20t20 -48t-20 -48t-49 -20h-682q-29 0 -49 20t-20 48t20 48t49 20z" />
    <glyph glyph-name="love2" unicode="&#xe630;" 
d="M707 803q-57 0 -108.5 -27.5t-87.5 -75.5q-36 48 -87.5 75.5t-108.5 27.5q-105 0 -179 -81t-74 -196q0 -42 13 -84t25.5 -64t34.5 -57q27 -42 72 -92.5t86 -89.5t88 -79.5t66 -55.5t32 -25q14 -11 32 -11t32 11q13 9 32 24.5t66 56t88 79.5t86 89.5t72 92.5
q22 35 34.5 57t25.5 64t13 84q0 115 -74 196t-179 81zM841 356q-26 -40 -70 -89t-84.5 -87t-86.5 -77t-62.5 -52.5t-26.5 -21.5v0q-10 8 -26.5 21t-62.5 52.5t-86 77.5t-84.5 87t-70.5 89q-20 32 -31.5 53t-21.5 53t-10 64q0 89 57.5 152t139.5 63q59 0 107.5 -35t71.5 -93
v1v0q4 -14 17 -14t17 14v0q23 57 71.5 92t107.5 35q82 0 139.5 -63t57.5 -152q0 -46 -16 -83.5t-47 -86.5z" />
    <glyph glyph-name="shopp" unicode="&#xe618;" 
d="M924 521v1q0 3 -1 5l-71 177q-10 27 -34 43t-56 16h-498q-32 0 -55 -15.5t-32 -41.5l-76 -181q-1 -2 -1 -4q-8 -26 -8 -52q0 -47 23.5 -86.5t64.5 -60.5v0v0v0v0q34 -18 78 -18q78 0 128 59q49 -59 126 -59t126 59q50 -59 128 -59q45 0 80 19q40 22 63 61.5t23 84.5
q1 27 -8 52v0zM817 376q-21 -11 -51 -11q-59 0 -90 50q-4 8 -9 13q-10 12 -29 12t-29 -12q-4 -5 -8 -13q-14 -23 -38 -36.5t-51 -14.5q-58 1 -89 51q-4 8 -8 12q-10 12 -29.5 12t-28.5 -11q-5 -5 -9 -14q-14 -23 -38 -36.5t-52 -13.5q-29 0 -49 11h-1q-26 14 -41 39t-15 55
q0 17 6 34q0 2 1 3l75 178q6 18 30 18h499q25 -1 32 -19l70 -176q0 -1 1 -3q6 -17 6 -35q0 -29 -15 -54t-40 -39v0zM839 279q-12 0 -21 -9t-9 -22v-165q0 -7 -5 -12t-12 -5h-570q-7 0 -12 4.5t-5 11.5l-1 163q0 13 -8.5 21.5t-21.5 8.5v0q-13 0 -21.5 -9t-8.5 -21v-163
q0 -32 22.5 -54.5t55.5 -22.5h570q32 0 55 23t23 55v165q0 13 -9 22t-22 9v0zM749 491h-485q-12 0 -21 9t-9 21.5t9 21.5t21 9h485q13 0 22 -9t9 -21.5t-9 -21.5t-22 -9v0zM749 491z" />
    <glyph glyph-name="twitter" unicode="&#xe619;" horiz-adv-x="1205" 
d="M1092 698q-57 -25 -119 -33q68 41 92 115q-61 -36 -133 -50q-61 65 -151 65q-86 0 -147 -60.5t-61 -146.5q0 -24 5 -48q-127 7 -238 64t-190 153q-28 -48 -28 -104q0 -53 25 -99t68 -74q-52 2 -94 26v-3q0 -74 47 -131.5t119 -71.5q-27 -8 -55 -8q-20 0 -39 4
q20 -63 73.5 -103t121.5 -41q-114 -89 -258 -89q-25 0 -50 3q145 -93 318 -93q111 0 208 35t166 94t119 135t74 159.5t24 166.5v27q61 45 103 108z" />
    <glyph glyph-name="jiantou-left" unicode="&#xe61a;" 
d="M301 384l422 -422v112l-310 310l310 310v112z" />
    <glyph glyph-name="jindu2" unicode="&#xe666;" 
d="M840.5 669.5q-55.5 55.5 -127.5 85t-150.5 29.5t-150 -29.5t-127.5 -85t-85.5 -127.5t-29.5 -150q0 -21 2 -41l-51 47q-10 8 -23 7.5t-21.5 -10t-8 -22.5t10.5 -21l106 -97q9 -8 21 -8q3 0 6 1h3q14 0 23 10l96 107q8 9 7.5 22t-10.5 21.5t-22.5 8t-21.5 -10.5l-52 -58
q-3 22 -3 44q0 89 44.5 165t120.5 120.5t165.5 44.5t166 -44.5t120.5 -120.5t44 -165.5t-44 -165.5t-120.5 -120.5t-165.5 -44.5q-135 0 -232 95q-9 9 -22 8.5t-22 -9.5t-9 -22t10 -22q55 -54 126 -83t149 -29t150 29.5t127.5 85.5t85 127.5t29.5 150t-29.5 150.5t-85 127.5
zM542 583q-13 0 -22 -9t-9 -22v-189q0 -12 9 -21.5t22 -9.5h189q13 0 22 9.5t9 22t-9 22t-22 9.5h-157v157q0 13 -9.5 22t-22.5 9z" />
    <glyph glyph-name="meizhuang" unicode="&#xe63f;" 
d="M334 -97q-67 0 -98 16q-23 12 -27 30v6l54 457l-212 264q-9 12 -2 25q21 38 67 76q92 75 221 81h15q123 0 218 -81q20 -18 38 -38.5t24 -30t8 -12.5q7 -14 -2 -25l-206 -262l50 -455q2 -11 -7 -19q-6 -5 -16.5 -11t-45 -13.5t-79.5 -7.5zM255 -40q22 -12 79 -12
q66 0 101 16l-49 449q-1 9 4 16l202 257q-23 32 -53 58q-81 69 -187 69q-4 0 -13 -1q-114 -5 -194 -70q-28 -23 -48 -50l208 -259q6 -8 5 -17zM367 402v0h-42q-17 0 -22 17l-49 185q-2 9 3 17.5t14 10.5t17 -2.5t10 -13.5l45 -169h6l39 172q2 9 10 14t17.5 3t14.5 -10t2 -17
l-43 -190q-4 -17 -22 -17zM297 361h99v-46h-99v46zM925 -94h-273q-9 0 -15.5 7t-6.5 16l2 501q0 9 7 16t16 7h270q10 0 16.5 -7t6.5 -16v-501q0 -10 -6.5 -16.5t-16.5 -6.5zM675 -48h228v455h-225zM831.5 33q-9.5 0 -16.5 7t-7 16v283q0 9 7 15.5t16.5 6.5t16 -6.5
t6.5 -15.5v-283q0 -9 -6.5 -16t-16 -7zM874 410h-161q-11 0 -17.5 8t-5.5 18l1 10v246q0 3 1 6l3 9t9 18.5t15.5 23.5t22.5 21t31 14q21 4 45.5 21.5t39.5 32.5q10 11 24 5q15 -5 15 -21v-389q-1 -9 -7.5 -16t-15.5 -7zM737 456h114v317q-37 -27 -69 -34q-16 -3 -28 -19
t-17 -32v-232z" />
    <glyph glyph-name="unpaid" unicode="&#xe64f;" 
d="M480 160zM448 160q0 13 9.5 22.5t22.5 9.5t22.5 -9.5t9.5 -22.5t-9.5 -22.5t-22.5 -9.5t-22.5 9.5t-9.5 22.5zM480 768q-172 0 -294 -122t-122 -294t122 -294t294 -122t294 122t122 294t-122 294t-294 122zM729 103q-49 -49 -112 -75q-65 -28 -137 -28t-137 28
q-63 26 -112 75t-75 112q-28 65 -28 137t28 137q26 63 75 112t112 75q65 28 137 28t137 -28q63 -26 112 -75t75 -112q28 -65 28 -137t-28 -137q-26 -63 -75 -112zM480 576q-13 0 -22.5 -9.5t-9.5 -22.5v-256q0 -13 9.5 -22.5t22.5 -9.5t22.5 9.5t9.5 22.5v256
q0 13 -9.5 22.5t-22.5 9.5z" />
    <glyph glyph-name="share-link" unicode="&#xe615;" 
d="M402 144l-41 -41q-27 -27 -65 -27t-65 27q-27 26 -27 64q0 37 27 64l152 151q14 14 29 25t33.5 20t37.5 7t35 -17q15 -15 36 -15t35.5 15t14.5 36t-15 36q-55 55 -130.5 45.5t-146.5 -80.5l-153 -151q-57 -56 -57 -136t57 -136t137 -56t136 56l42 41q15 15 15 36
t-15 35.5t-36 15t-36 -14.5zM865 732q-60 59 -134 61.5t-129 -51.5l-52 -51q-15 -15 -15 -36t15 -36t36 -15t36 15l51 51q18 18 40.5 21t42.5 -5.5t37 -25.5q27 -27 27 -64.5t-27 -63.5l-162 -162q-27 -26 -48.5 -37.5t-37 -8t-23 8t-16.5 13.5q-15 15 -36 14.5t-35.5 -15
t-14.5 -36t15 -35.5q51 -51 114 -51q77 0 153 75l163 162q57 56 57 135.5t-57 136.5z" />
    <glyph glyph-name="beizhu" unicode="&#xe629;" 
d="M512 806q-115 0 -212 -56.5t-153.5 -153.5t-56.5 -212t56.5 -212t153.5 -153.5t212 -56.5t212 56.5t153.5 153.5t56.5 212t-56.5 212t-153.5 153.5t-212 56.5zM512 18q-99 0 -183.5 49t-133.5 133.5t-49 183.5t49 183.5t133.5 133.5t183.5 49t183.5 -49t133.5 -133.5
t49 -183.5t-49 -183.5t-133.5 -133.5t-183.5 -49zM599 152q-24 4 -37 9t-13 17v209q0 23 2 39q3 14 3 25t-12 11q-8 0 -23 -3q-16 -4 -36 -7q-12 -1 -33 -2q-20 -1 -31 -1q-2 -6 -2 -10q0 -9 11 -11q30 -2 39 -12t9 -32v-206q0 -12 -13 -17q-14 -5 -36 -9q-8 -2 -8 -9
q0 -2 1 -6.5t1 -5.5q2 0 12 1q12 1 22 1q13 1 28 1q14 1 30 1t30 -1q14 0 28 -1q7 0 22 -1q9 -1 11 -1q1 1 2 5v7q0 7 -7 9zM513 544q20 0 34 12.5t14 31.5q0 18 -14 31.5t-34 13.5q-22 0 -36 -13.5t-14 -31.5q0 -19 14 -31.5t36 -12.5z" />
    <glyph glyph-name="aite" unicode="&#xe61f;" 
d="M651 140h50q186 62 215 294q5 125 -37 187q-108 178 -348 182q-112 6 -199 -37q-106 -51 -161 -141t-63 -203q-9 -120 37 -228q104 -216 332 -228q203 -9 361 128l-46 50q-187 -153 -406 -87q-191 83 -208 315q4 104 50 191q47 86 121 132.5t173 45.5q147 -1 230 -67.5
t98 -181.5q4 -207 -149 -278h-25q-29 21 -21 59l104 344h-83l-13 -46l-25 33q-103 71 -215 4q-100 -74 -129 -188t4.5 -186.5t116.5 -85.5q95 -8 170 71v-5q0 -53 66 -74v0zM464 223l-54 4q-62 21 -54 108q34 207 179 236q87 -4 99 -66q-12 -216 -170 -282v0zM464 223z" />
    <glyph glyph-name="beibeizhu" unicode="&#xe62a;" 
d="M876 149q46 79 57 171.5t-16 180.5q-26 83 -83 151t-135 108q-82 42 -176 47.5t-180 -27.5q-82 -32 -146.5 -93.5t-98.5 -141.5q-38 -88 -36 -182q2 -92 42 -179q37 -79 103.5 -138t149.5 -88q87 -31 180.5 -22.5t174.5 53.5q24 13 48 31q8 7 10 14q3 9 -2 17
q-4 8 -13.5 11t-17.5 -3q-35 -26 -74 -44q-3 -2 -10 -4l-2 -1h1q-4 -1 -5 -2q-10 -4 -21 -8q-20 -6 -42 -11q-9 -2 -20 -4q-5 -1 -11 -2h-1q-2 -1 -7 -1q-22 -3 -46 -3q-22 0 -46 3q-3 0 -5 1h-1q-4 0 -11 1q-10 2 -22 5q-21 4 -42 11q-9 4 -19 8q-2 0 -5 2h-1q-5 2 -11 5
q-37 17 -72 43l-4 3h-1q-3 3 -7 6q-8 6 -17 14q-14 14 -29 30q-6 7 -13 15l-3 4l-1 2l1 -1q-3 3 -7 9q-12 16 -23 35q-10 18 -19 38q-1 1 -1.5 2.5t-1.5 2.5v1q-2 3 -4 9q-3 10 -7 21q-7 20 -11 42q-2 10 -4 22q-1 1 -1 5v1q-1 6 -2 13q-4 44 2 90v3v-2v3v3q1 4 2 10
q2 10 5 23q5 20 12 42l8 20v1q1 1 2.5 4t4.5 11q9 18 21 37q11 18 24 35l-1 -1l1 2q2 1 4 3q2 4 6 8l14 16q14 15 30 29q7 6 16 12v1q1 0 2.5 1.5l1.5 1.5q4 2 10 7q34 24 74 41l-2 -1q2 1 3 1l4 2q4 1 10 4l21 7q21 6 44 11q4 0 10 1q4 1 6 1l2 1l-1 -1q10 2 23 3
q22 1 45 1q10 -1 22 -1l10 -2h6h1v0h-2q1 0 4 -1q21 -3 44 -8q20 -6 41 -14q4 -1 10 -3q0 -1 2 -1h-1q3 -1 5 -2q9 -4 20 -9q18 -9 36 -21q8 -5 17 -12q3 -2 8 -6q2 -1 4 -3v1l2 -2q32 -25 59 -58q3 -3 7 -8l1 -1.5t2 -2.5v0q6 -8 13 -18q11 -17 21 -36q5 -8 9 -18
q2 -3 5 -9q0 -1 0.5 -2.5t1.5 -1.5h-1q1 -1 1 -3q8 -19 15 -41q5 -19 9 -39q1 -3 2 -11q0 -2 1 -5v-1q1 -10 2 -21q3 -41 -2 -84v-1v0v1q-1 -4 -1 -5q0 -3 -2 -11q-1 -10 -4 -21q-5 -19 -12 -40q-3 -8 -7 -19q-1 -3 -2 -5l1 2l-1 -2l-4 -10q-8 -18 -19 -36q-5 -8 -2.5 -17.5
t10.5 -14t17 -2t14 10.5v0v0zM499 631q-63 0 -108.5 -44.5t-47.5 -107.5q-1 -10 6 -17t17 -7h1q9 0 16 6.5t7 16.5q2 44 33.5 74.5t75.5 30.5q46 0 77.5 -32t31.5 -77q0 -44 -30.5 -76t-74.5 -33h-1v0h-1v0h-2q-9 0 -16 -7t-7 -17v-102q0 -10 7 -17t16.5 -7t16.5 7t7 17v80
h3q50 9 86 46q44 45 44 109q0 65 -46 111t-111 46zM499.5 161q-9.5 0 -16.5 -7t-7 -17v-2q0 -10 7 -17t16.5 -7t16.5 7t7 17v2q0 10 -7 17t-16.5 7z" />
    <glyph glyph-name="guarantee" unicode="&#xe64d;" 
d="M909 750q-18 17 -44 17h-4q-10 -1 -27 -1q-72 0 -129 14q-28 7 -61.5 28t-64 46.5t-33.5 27.5q-16 11 -35 11q-22 0 -36 -11q-2 -2 -21 -19t-36 -31t-44.5 -29.5t-53.5 -22.5q-57 -14 -130 -14q-16 0 -27 1h-4q-26 0 -44 -17q-21 -19 -21 -47v-159q0 -95 14 -178
t35.5 -143.5t52.5 -112.5t61.5 -86t66.5 -62t63 -42.5t55 -25.5t39 -14t18 -4q6 -1 11.5 -1t11.5 1q7 1 18.5 4t39.5 14t55 25.5t63 42.5t67 62t62 86t53 112.5t36 143.5t14 178v159q0 28 -21 47v0v0zM865 544q0 -111 -20 -204t-49.5 -153.5t-70.5 -108.5t-74.5 -72.5
t-70 -41.5t-49.5 -20.5t-20 -4.5v0q-8 1 -20.5 4.5t-49 20.5t-70 41.5t-74 72.5t-69.5 108.5t-49 153.5t-20 204v159h31q81 0 145 15q40 10 83.5 37.5t67.5 50.5l25 23q10 -10 27.5 -25.5t64.5 -45.5t87 -40q64 -15 144 -15h31v-159zM753 495q12 11 12 27t-12 27v0
q-11 12 -27 12t-27 -12l-249 -248l-125 125q-11 11 -27 11t-27.5 -11.5t-11.5 -27.5t12 -27l152 -152q11 -12 27 -12t27 12z" />
    <glyph glyph-name="huojian" unicode="&#xe66e;" 
d="M942 747q-4 -113 -48 -228q-53 -137 -154 -230q-7 -7 -6 -18t3 -35t4 -36q8 -84 -59 -132q-36 -27 -146 -98q-24 -16 -47 -4.5t-26 39.5q-5 49 -10 127q-1 16 -3.5 19t-17.5 5q-84 11 -127 80q-21 33 -25 79q-1 10 -12 11q-80 4 -132 8q-28 2 -39.5 25.5t3.5 48.5l43 67
q6 9 21.5 34t24.5 38q43 68 120 68q13 1 90 -8q8 -1 13 5q97 108 251 164q82 29 169 38q52 6 87 -1q12 -2 14.5 -4.5t4.5 -14.5q5 -29 4 -47v0zM804 552q1 51 -35 88.5t-86 38.5q-53 1 -91 -34.5t-40 -92.5q-1 -49 37 -87t87 -38q53 -1 90.5 36t37.5 89v0zM215 267
q18 0 25 -19q28 -78 100 -119q16 -8 34 -14q16 -6 19 -19t-9 -24.5t-35 -34.5t-34 -35q-13 -12 -27 -7q-16 6 -16 23q-1 4 -1 11.5v10.5q0 9 -1.5 10.5t-10.5 -1.5q-13 -5 -39 -13.5t-39 -12.5t-22 1q-18 10 -11 31q5 15 15 44.5t11 34.5q3 8 2 10t-10 2h-23q-17 1 -23 16
q-5 15 6 26q22 22 72 73q8 7 17 6v0zM215 267z" />
    <glyph glyph-name="follow" unicode="&#xe642;" 
d="M912 64h-100v-100q0 -20 -20 -20t-20 20v100h-100q-20 0 -20 20t20 20h100v100q0 20 20 20t20 -20v-100h100q20 0 20 -20q0 -9 -6 -14.5t-14 -5.5zM702 270q-62 59 -152 84q-20 6 -20 24q0 8 5 14t10 8l5 2q53 23 86.5 73t33.5 111q0 82 -59 141t-141 59t-141 -59
t-59 -141q0 -60 33 -109.5t87 -74.5q24 -6 24 -24q0 -8 -6 -14t-12 -8l-6 -2q-86 -21 -151.5 -83t-90.5 -147v0q-2 0 -5.5 -15t-6.5 -30l-2 -15h434h4q20 0 20 -20t-20 -20h-440q-2 0 -5 1t-5 1q-12 3 -20 14t-8 24v0v0v0q0 6 2 10q13 106 80.5 189t167.5 119q-52 32 -82 85
t-30 117q0 99 70.5 169.5t169.5 70.5t169.5 -70.5t70.5 -169.5q0 -64 -30 -117t-82 -85q75 -28 128 -78q2 -2 4.5 -5t6 -12.5t-2.5 -14.5q-12 -19 -34 -2z" />
    <glyph glyph-name="followed" unicode="&#xe643;" 
d="M946 110l-158 -158q-8 -8 -14 -8l-16 8l-84 96q-12 20 4 30q6 6 15 4.5t13 -8.5l68 -80l144 144q6 6 14 6t12 -6q17 -13 2 -28zM760 216q-12 0 -18 12v0q-74 99 -190 126q-20 6 -20 24q0 8 5 14t10 8l5 2q53 23 86.5 73t33.5 111q0 82 -59 141t-141 59t-141 -59t-59 -141
q0 -60 33 -109.5t87 -74.5q24 -6 24 -24q0 -8 -6 -14t-12 -8l-6 -2q-45 -8 -84 -28.5t-64 -46.5t-45.5 -56t-32 -58t-18.5 -50.5t-10 -36.5l-2 -14h436q2 0 5.5 -0.5t9 -5.5t5.5 -14t-5 -14t-10 -6h-5h-440q-16 0 -25 10t-10 20l-1 10v10q13 106 80.5 189t167.5 119
q-52 32 -82 85t-30 117q0 99 70.5 169.5t169.5 70.5t169.5 -70.5t70.5 -169.5q0 -64 -30 -117t-82 -85q45 -21 80.5 -44t53.5 -40.5t29 -32t14 -21.5l3 -8q0 -8 -5.5 -14t-14.5 -6z" />
    <glyph glyph-name="load" unicode="&#xe644;" 
d="M512 803q-114 0 -210.5 -56t-152.5 -152.5t-56 -210.5t56 -210.5t152.5 -152.5t210.5 -56q17 0 29.5 12.5t12.5 29.5t-12.5 29.5t-29.5 12.5q-91 0 -168 45t-122 122t-45 168t45 168t122 122t168 45t168 -45t122 -122t45 -168q0 -17 12.5 -29.5t29.5 -12.5t29.5 12.5
t12.5 29.5q0 114 -56 210.5t-152.5 152.5t-210.5 56z" />
    <glyph glyph-name="chenggong2" unicode="&#xe648;" 
d="M512 806q-114 0 -211.5 -56.5t-154 -154t-56.5 -211.5t56.5 -211.5t154 -154t211.5 -56.5t211.5 56.5t154 154t56.5 211.5t-56.5 211.5t-154 154t-211.5 56.5zM512 15q-101 0 -186 49t-134 134t-49 186t49 186t134 134t186 49t186 -49t134 -134t49 -186t-49 -186
t-134 -134t-186 -49zM702 521l-253 -253l-127 127q-12 11 -25.5 11t-21.5 -11q-22 -33 0 -48l147 -148q12 -11 26 -11t22 11l279 280q12 12 12 25.5t-12 21.5q-7 9 -21.5 8t-25.5 -13z" />
    <glyph glyph-name="jindutiao" unicode="&#xe667;" 
d="M603 228l121 180l-121 181h60l120 -181l-120 -180h-60zM422 228l121 180l-121 181h60l120 -181l-120 -180h-60zM241 228l121 180l-121 181h60l120 -181l-120 -180h-60zM813 6h-180v-39h181q50 0 85 35.5t35 84.5v181h-39v-180q0 -34 -24 -58t-58 -24zM129 88v180h-39
v-181q0 -49 35.5 -84.5t85.5 -35.5h180v39h-180q-34 0 -58 24t-24 58zM895 690v-180h39v181q0 49 -35 84.5t-85 35.5h-181v-39h180q34 0 58 -24t24 -58zM211 772h180v39h-180q-50 0 -85.5 -35.5t-35.5 -84.5v-181h39v180q0 34 24 58t58 24z" />
    <glyph glyph-name="checkbox" unicode="&#xe61c;" 
d="M434 177l-185 185l75 74l110 -111l266 266l75 -74zM91 805v-840h841v840h-841zM871 25h-719v719h719v-719z" />
    <glyph glyph-name="chenggong" unicode="&#xe649;" 
d="M354 406l125 -125l202 201q11 11 26.5 11t26.5 -11.5t10.5 -26.5t-11.5 -26l-220 -221q-4 -7 -6 -9q-12 -11 -29 -10q-16 0 -27 11q-2 2 -5 8l-145 144q-11 11 -11 26.5t11 26.5t26.5 11t26.5 -10v0zM517 -36q-130 0 -238 75q-12 3 -19.5 13.5t-7.5 23.5l-1 3q0 16 11 27
t27 11q17 0 28 -13q89 -65 200 -65q92 0 170.5 45.5t124 124t45.5 171t-45.5 170.5t-124 124t-171 46t-171 -45.5t-124 -124t-45.5 -171.5q0 -73 42 -162q5 -6 9 -23v-4q0 -16 -11 -27t-27 -11q-13 0 -22.5 8t-13.5 20q-51 92 -51 199q0 113 55.5 208.5t151.5 151
t208.5 55.5t208 -55.5t151.5 -151t55.5 -208.5t-56 -208.5t-151 -151t-208.5 -55.5v0z" />
    <glyph glyph-name="wancheng2" unicode="&#xe658;" 
d="M512 -63v0v0v0zM512 -63zM459 265l25 -26q5 -4 11.5 -4t11.5 4l446 447q12 11 0 23l-25 25q-5 5 -11.5 5t-11.5 -5l-446 -446q-12 -12 0 -23v0zM459 265zM507 239l26 26q5 5 5 11.5t-5 11.5l-191 182q-11 12 -23 0l-25 -25q-5 -5 -5 -11.5t5 -11.5l191 -183q11 -11 22 0
v0zM507 239zM898 451q5 -34 5 -67q0 -106 -52 -196.5t-142.5 -142.5t-196.5 -52t-196.5 52t-142.5 142.5t-52 196.5t52 196.5t142.5 142.5t196.5 52q75 0 145 -28l16 54q-78 30 -161 30q-91 0 -174 -35t-142.5 -95t-95 -143t-35.5 -174t35.5 -174t95 -143t142.5 -95t174 -35
t174 35t143 95t95 143t35 174q0 43 -8 85l-53 -18v0zM898 451z" />
    <glyph glyph-name="weizhi2" unicode="&#xe63e;" 
d="M512 896q-107 0 -198 -53t-144 -144t-53 -198q0 -124 70 -224q4 -7 7 -11l288 -380q13 -14 30 -14t31 15l287 379q3 4 6 10q71 101 71 225q0 107 -53 198t-144 144t-198 53v0zM512 360q-58 0 -99.5 41.5t-41.5 99.5t41.5 99.5t99.5 41.5t99.5 -41.5t41.5 -99.5
t-41.5 -99.5t-99.5 -41.5v0z" />
    <glyph glyph-name="gantanhao" unicode="&#xe670;" 
d="M439 -55q0 -30 21.5 -51.5t51.5 -21.5t51.5 21.5t21.5 51.5t-21.5 51.5t-51.5 21.5t-51.5 -21.5t-21.5 -51.5zM606 802q0 39 -27.5 66.5t-66.5 27.5t-66.5 -27.5t-27.5 -66.5q0 -2 1 -5v0l20 -597q0 -31 21.5 -52t51.5 -21t51.5 21t21.5 52l20 597v0q1 3 1 5z" />
    <glyph glyph-name="dingyue" unicode="&#xe621;" 
d="M754.5 69q-70.5 0 -120.5 49.5t-50 120t50 120.5t120.5 50t120.5 -50t50 -120.5t-50 -120t-120.5 -49.5zM852 326l-128 -118l-67 68l-34 -35l98 -102l164 149zM415 360q-70 0 -120 49.5t-50 120t50 120t120 49.5t119.5 -49.5t49.5 -120t-49.5 -120t-119.5 -49.5zM548 286
q-7 -24 -7 -47q0 -59 24 -104t71 -66h-537v78q0 37 34.5 68.5t86 50.5t104 29t95.5 10q54 0 129 -19z" />
    <glyph glyph-name="wancheng" unicode="&#xe659;" 
d="M923 382v67q0 11 -8 19t-19 8v0q-11 0 -19 -8t-8 -19v-67q1 -183 0 -276q0 -54 -39 -89q-33 -29 -75 -29h-488q-39 0 -71 28q-41 35 -41 91v118v359q-1 54 39 90q30 26 69 28q29 2 87 1h38h188h39v0q11 0 19 8t8 19t-8 19t-19 8h-39h-188h-38q-61 1 -89 -1
q-59 -2 -102 -41q-59 -52 -58 -131v-359v-118q0 -81 60 -132q47 -41 106 -41h246h242q62 0 110 43q58 51 58 129q1 93 0 276zM531 391l-76 148q-2 5 -6.5 6t-8.5 -1l-178 -109q-6 -4 -5 -10.5t7 -9.5q57 -20 130.5 -81.5t139.5 -143.5q3 -4 9 -4h1q5 1 8 6q25 45 71 108
t96 120q123 139 187 153q5 1 7.5 5.5t0.5 9.5q-19 43 -21 92.5t6 88.5q4 36 5 53q0 7 -5 10.5t-11 0.5q-78 -40 -153 -122q-59 -65 -115 -154q-50 -80 -89 -166z" />
    <glyph glyph-name="upload4" unicode="&#xe64a;" 
d="M959 590q-5 20 -27 42t-57 28q-72 3 -276.5 0.5t-268.5 -0.5q0 37 -7 49q-10 2 -51 1t-53 -1q-3 0 -5.5 -2.5t-5 -6t-3.5 -5.5v-42q-18 -2 -39 0t-38 0q-63 -25 -63 -70q0 -53 0.5 -234t-0.5 -227q0 -18 24 -40t46 -23q101 3 389 0.5t358 -0.5q59 14 77 70
q-3 60 -1.5 248.5t1.5 212.5zM554 108q-50 -11 -98 0t-84.5 38t-63 67.5t-38 85.5t-5.5 94t30 92q50 86 168 119q67 7 121.5 -8t89.5 -45.5t56 -71.5t26 -86t-6 -91t-35.5 -85t-66 -68.5t-94.5 -40.5zM484 541q-58 -13 -96 -47.5t-50.5 -77t-5 -88.5t32.5 -82.5t69 -58
t99 -16.5q63 5 104.5 46t48 95.5t-8.5 107.5t-67 88.5t-126 32.5zM407 331q1 -6 -7 -7h-14q-8 0 -11 6q-3 8 -4.5 14.5t-1.5 12.5v10t2 8.5t2.5 6.5t3 7l2.5 5q5 9 18 7.5t17 -7.5q-10 -42 -7 -63zM540 464q-3 0 -16.5 1t-19 -0.5t-18 -5.5t-26.5 -15t-32 -29q-8 -4 -15 0
q-12 14 -4.5 28.5t26 27.5t33 20.5t16.5 7.5q29 6 56 0q2 -1 2 -10t-1 -16.5t-1 -8.5z" />
    <glyph glyph-name="paymentinfo" unicode="&#xe66b;" 
d="M868 46h-712q-39 0 -66.5 29.5t-27.5 70.5v476q0 41 27.5 70t66.5 29h712q39 0 66.5 -29t27.5 -70v-476q0 -41 -27.5 -70.5t-66.5 -29.5v0v0zM925 594q0 36 -24.5 62t-58.5 26h-660q-34 0 -58 -26t-24 -62v-31h825v31zM100 444v-270q0 -36 24 -62t58 -26h660
q34 0 58.5 26t24.5 62v270h-825zM643 146l56 119h188l-56 -119h-188z" />
    <glyph glyph-name="wujiaoxing" unicode="&#xe645;" 
d="M797 -92q-9 0 -16 4l-253 141l-254 -140q-19 -10 -36 2t-14 33l50 299l-207 212q-14 15 -7.5 34t26.5 23l163 27q13 3 24.5 -5t14 -22t-5.5 -25t-22 -14l-100 -17l174 -178q11 -13 9 -29l-41 -248l209 116q17 9 33 0l209 -116l-40 247q-3 17 9 29l173 176l-237 37
q-17 3 -25 19l-104 223l-105 -222q-6 -13 -19 -17.5t-26 1t-17.5 19t1.5 25.5l136 287q9 20 30 20v0q21 -1 30 -20l127 -271l284 -44q20 -3 26.5 -22.5t-7.5 -34.5l-207 -211l48 -299q4 -21 -14 -33q-8 -6 -19 -6v0v0zM797 -92z" />
    <glyph glyph-name="wancheng3" unicode="&#xe65a;" 
d="M892 435v194q0 56 -39.5 95.5t-95.5 39.5h-490q-56 0 -95.5 -39.5t-39.5 -95.5v-194h-42v-102h42v-194q0 -56 39.5 -95.5t95.5 -39.5h490q56 0 95.5 39.5t39.5 95.5v194h42v102h-42zM259 806h506q70 0 119.5 -49.5t49.5 -119.5v-506q0 -70 -49.5 -119.5t-119.5 -49.5
h-506q-70 0 -119.5 49.5t-49.5 119.5v506q0 70 49.5 119.5t119.5 49.5zM339 438l-29 -30l161 -161l250 251l-30 29l-220 -220z" />
    <glyph glyph-name="reset" unicode="&#xe63a;" 
d="M914 768q-12 0 -21 -9t-9 -22v-116q-29 44 -68 80q-72 65 -168 97q-85 28 -173 20q-85 -8 -161 -47t-132 -104q-58 -68 -85.5 -153.5t-19.5 -174.5q7 -86 46 -163t103 -134q67 -58 152 -86q66 -22 135 -22q6 0 15 1q74 2 143 29.5t125.5 76t94.5 113.5q6 11 2.5 23
t-14 18.5t-22.5 3t-18 -14.5q-67 -115 -192 -163.5t-251 -6.5q-73 24 -130.5 74.5t-89 115t-40 140.5t16.5 151q24 73 72.5 130t115.5 92q139 72 288 23q73 -24 131 -71.5t92 -110.5h-159q-12 0 -21 -9t-9 -21.5t9 -21.5t21 -9h208q3 0 6 1q4 -1 7 -1q12 0 21 9t9 21v210
q0 13 -9 22t-21 9z" />
    <glyph glyph-name="nvzhuang" unicode="&#xe640;" 
d="M957 13q-32 54 -123 201.5t-139 228.5q16 35 47.5 101t46.5 97q10 22 -4 40q-41 52 -36 182q1 13 -9 23t-23 10h-117q-11 0 -21 -7t-11 -17q-11 -72 -52 -87q-21 -8 -37 5.5t-23 33t-9 39.5q-1 14 -10 23.5t-23 9.5h-111q-14 1 -26 -7.5t-13 -24.5q-2 -40 -4.5 -65
t-11 -58.5t-23.5 -51.5q-17 -22 -9 -40q16 -35 44 -102.5t42 -99.5q-121 -211 -215 -382q-2 -4 -11.5 -20t-11.5 -21.5t-5.5 -17.5t-1.5 -22t8 -21q13 -25 38.5 -46t52.5 -32q56 -19 96 -7t78 55q17 16 33.5 16t38.5 -12t40 -26.5t39.5 -26.5t36.5 -12q25 0 52.5 15.5
t57 35.5t49.5 26q10 4 23.5 -5t29.5 -25.5t19 -18.5q35 -27 79 -18q37 7 74.5 35t56.5 62q9 16 -2 34zM490 717q50 -3 86 29.5t50 83.5h57q1 -109 42 -175q-14 -30 -41.5 -89t-41.5 -89h-273q-6 16 -19.5 42t-14.5 28q-9 22 -27 62.5t-23 51.5q37 59 44 169h57
q10 -46 36.5 -78t67.5 -35zM844 -39q-19 -12 -34 -12t-23 5.5t-23 19t-25 21.5q-16 11 -33.5 15t-30 4t-33 -8t-29 -12.5t-31.5 -19t-29 -17.5q-2 -1 -7.5 -4.5t-9 -5.5t-9.5 -5t-9 -3t-8 1q-9 4 -17 10t-19.5 15.5t-15.5 12.5q-59 45 -113 34q-45 -9 -83 -54
q-21 -24 -48 -21.5t-51.5 18t-41.5 38.5q11 18 101.5 177.5t139.5 240.5h277q2 -6 29 -51q40 -66 113 -189t104 -175q-13 -18 -41 -35z" />
    <glyph glyph-name="daifahuo" unicode="&#xe653;" 
d="M510 -59q-88 0 -171 35q-82 34 -143.5 96t-95.5 144q-27 67 -32 138t12.5 137t52.5 124.5t89 105t120.5 73.5t137.5 32t137 -12.5t124.5 -52t105 -88.5t73.5 -121q42 -103 31 -213q-1 -7 -6.5 -11.5t-12.5 -4t-11.5 6t-3.5 12.5q10 102 -29 197q-31 75 -87.5 132.5
t-132 89t-156.5 32t-156 -30.5q-77 -31 -135 -89.5t-87 -130.5t-32 -153.5t31 -158.5q30 -76 87 -133.5t132.5 -89t156 -32t156.5 30.5q7 3 13.5 0t9 -9.5t0 -13t-9.5 -9.5q-81 -33 -168 -33zM824 75v0q-7 0 -12 5.5t-5 12.5l5 115q0 7 5 12t13 4q7 0 11.5 -5t4.5 -13
l-4 -114q0 -7 -5.5 -12t-12.5 -5zM939 70v1l-115 4q-7 0 -12 5.5t-5 12.5t5.5 12t12.5 5l115 -5q7 0 12 -5.5t4.5 -12.5t-5.5 -12t-12 -5zM714 393h-373q-24 0 -40.5 16.5t-16.5 40.5v60q0 24 16.5 41t40.5 17h373q24 0 41 -17t17 -41v-60q0 -24 -17 -40.5t-41 -16.5z
M341 533q-9 0 -16 -6.5t-7 -16.5v-60q0 -9 7 -16t16 -7h373q10 0 16.5 7t6.5 16v60q0 10 -6.5 16.5t-16.5 6.5h-373zM659 153h-263q-29 0 -49 20.5t-20 48.5v136q0 29 20 49t49 20h263q29 0 49.5 -20t20.5 -49v-136q0 -28 -20.5 -48.5t-49.5 -20.5zM396 393
q-14 0 -24.5 -10.5t-10.5 -24.5v-136q0 -14 10.5 -24t24.5 -10h263q15 0 25 10t10 24v136q0 14 -10 24.5t-25 10.5h-263z" />
    <glyph glyph-name="ins" unicode="&#xe626;" 
d="M704 821h-384q-101 0 -173 -72t-72 -173v-384q0 -101 72 -173t173 -72h384q101 0 173 72t72 173v384q0 101 -72 173t-173 72v0zM879 192q0 -70 -49.5 -119.5t-119.5 -49.5h-390q-70 0 -119.5 49.5t-49.5 119.5v384q0 70 49.5 119.5t119.5 49.5h384q70 0 119.5 -49.5
t49.5 -119.5v-384h6zM512 611q-92 0 -159.5 -67.5t-67.5 -159.5q0 -93 66 -160t161 -67q96 0 161.5 65.5t65.5 161.5q0 92 -67.5 159.5t-159.5 67.5v0zM512 233q-65 0 -108 44.5t-43 106.5q0 61 45 106t106 45t106 -45t45 -106q0 -62 -43 -106.5t-108 -44.5v0zM687 611
q0 -24 17 -41t41 -17t41 17t17 41t-17 41t-41 17t-41 -17t-17 -41z" />
    <glyph glyph-name="jindu" unicode="&#xe668;" 
d="M75 612q-8 7 -8 18t8 19t19 8t19 -8l245 -245q8 -8 8 -19t-8 -19v0l-247 -247q-8 -8 -19 -8t-19 7.5t-8 19t8 18.5l228 229zM668 612q-8 7 -8 18t8 19t19 8t19 -8l245 -245q8 -8 8 -19t-8 -19l-247 -247q-8 -8 -19 -8t-19 7.5t-8 19t8 18.5l228 229zM371 612l227 -227
l-229 -229q-7 -7 -7 -18.5t7.5 -19t18.5 -7.5t19 8l248 247q8 8 8 19t-8 19l-246 245q-8 8 -19 8t-19 -7.5t-7.5 -19t7.5 -18.5v0zM371 612z" />
    <glyph glyph-name="jinxingzhong" unicode="&#xe661;" 
d="M511 757q101 0 186.5 -50t135.5 -136t50 -186.5t-50 -186.5t-135.5 -136t-186.5 -50t-187 50t-136 136t-50 186.5t50 186.5t136 136t187 50zM697 385h-186v260q0 16 -11 26.5t-26.5 10.5t-26.5 -10.5t-11 -26.5v-298q0 -16 11 -26.5t26 -10.5h1.5h0.5h222q15 0 26 11
t11 26.5t-11 26.5t-26 11zM511 831q-91 0 -174 -35t-142.5 -95t-95 -143t-35.5 -173.5t35.5 -173.5t95 -143t142.5 -95t174 -35t173.5 35t142.5 95t95 143t35 173.5t-35 173.5t-95 143t-142.5 95t-173.5 35v0z" />
    <glyph glyph-name="yidu" unicode="&#xe63b;" 
d="M755 505h176v-58h-176v58zM755 505zM287 95q-13 0 -21 9l-176 176l42 41l155 -155l506 507l42 -42l-528 -527q-8 -9 -20 -9v0zM287 95zM521 154h410v-59h-410v59zM521 154zM638 330h293v-59h-293v59zM638 330z" />
    <glyph glyph-name="xiazai2" unicode="&#xe62f;" horiz-adv-x="1042" 
d="M979 216q-5 -68 -58 -115t-127 -47l-154 -2l-340 4q-85 0 -148 57t-67 137q-3 73 43 131.5t120 73.5q7 115 95 191q95 82 221 68q94 -9 164 -71.5t86 -152.5q8 -47 2 -89q69 -5 114 -55q54 -55 49 -130v0v0v0zM906 325q-45 44 -107 44h-3q-8 0 -14 6q-5 6 -3 14
q11 50 1 96q-14 78 -75.5 133.5t-144.5 64.5q-110 11 -194 -61q-40 -35 -62 -82t-22 -99q0 -15 -15 -16q-66 -9 -108.5 -59t-39.5 -115q2 -67 55.5 -115.5t126.5 -48.5h334v0h159q60 0 104 38.5t47 93.5q3 62 -39 106v0v0v0zM532 177q-4 -5 -11 -5t-12 5l-134 129
q-11 12 0.5 23.5t23.5 -0.5l103 -101v194v11.5t-0.5 23.5t0 23t0.5 12h36q-1 -5 -0.5 -17.5t0.5 -29.5v-18v-198l103 101q5 5 13 5q6 0 12 -6q12 -11 0 -23zM532 177zM640 48v0l-340 3q-87 0 -151.5 58t-67.5 140q-4 75 42 134t121 76q4 54 28 102q25 51 68 88q41 35 90 53
t103 18q16 0 32 -1q95 -10 166 -73q34 -31 56 -70q23 -40 31 -85q8 -46 3 -86q68 -7 113 -56q26 -27 39 -61.5t10 -72.5q-4 -69 -59 -117.5t-130 -48.5l-154 -1v0zM533 711q-106 0 -187 -69q-87 -74 -94 -187v-4h-3q-73 -16 -118 -72.5t-41 -128.5q3 -79 64.5 -134.5
t145.5 -55.5l340 -3l154 1q72 0 124 46t56 112q5 73 -47 127v0q-44 48 -112 53l-4 1v4q7 42 -2 88q-16 89 -84 150.5t-161 70.5q-16 1 -31 1zM794 83h-493q-74 0 -129 49.5t-58 117.5q-2 67 41.5 118.5t110.5 60.5q11 1 11 12q0 52 22.5 100.5t63.5 83.5q73 64 169 64
q14 0 28 -2q85 -9 147 -65q63 -56 77 -137q10 -46 -1 -97q-1 -6 2 -10q5 -4 11 -4h3q64 0 110 -46q44 -45 40 -109q-3 -57 -48 -96.5t-107 -39.5v0zM636 92h158q59 0 101 37t45 90q4 61 -38 102q-43 44 -103 44h-3q-10 0 -17 6v1v0q-7 8 -5 18q11 49 1 94v0
q-13 77 -73.5 131t-142.5 63q-13 2 -27 2q-93 0 -163 -62q-40 -34 -61.5 -80.5t-21.5 -96.5q0 -8 -5 -14t-13 -7q-65 -9 -106 -57.5t-39 -111.5q3 -66 55 -112.5t123 -46.5h334h1zM521 167q-9 0 -15 7l-134 129q-6 6 -6 14.5t6.5 15t15 6.5t14.5 -7l95 -93v183v7v64l1 4h45
l-1 -5v-55q1 -9 1 -10v-187l95 94q6 5 16 5q8 0 15 -7q7 -6 7 -14.5t-7 -14.5l-133 -129q-6 -7 -15 -7zM387 330q-5 0 -8.5 -4t-3.5 -8.5t3 -7.5l134 -130q4 -4 9 -4t8 4v0l134 130q4 3 4 7.5t-4 8.5t-9 4q-6 0 -10 -3l-110 -108v208q0 1 -1 9v52h-27v-59v-7v-205l-110 109
q-4 4 -9 4z" />
    <glyph glyph-name="check" unicode="&#xe650;" 
d="M816 25h-580q-17 0 -32 16t-15 34v621q0 16 14.5 24.5t32.5 8.5h580q36 0 36 -33v-260l1.5 -3l2.5 -5l2 -3h-2q3 -2 10.5 -7.5t10.5 -8.5t8 -8.5t7 -10.5t2 -10v316q0 34 -21.5 54.5t-56.5 20.5h-580q-35 0 -61.5 -21t-26.5 -54v-621q0 -35 27 -63t61 -28h580q32 0 54 24
l-29 31q-11 -14 -25 -14zM989 68l-119 119q-3 2 -5 4q31 51 23.5 113t-51.5 108v0q-52 52 -127 52q-77 0 -128 -54q-53 -53 -54 -128.5t52 -128.5v0q53 -52 127 -52q56 0 101 30l3 -2l118 -119q13 -13 29.5 -13t28.5 13q14 11 14 28t-12 30zM808 183.5q-41 -41.5 -99 -41.5
t-98 40q-43 42 -41 100q0 58 41.5 99.5t99.5 41.5t98 -40q41 -42 40.5 -100t-41.5 -99.5zM790 584q0 9 -6 15t-15 6h-483q-8 0 -14.5 -6t-6.5 -14.5t6.5 -14.5t14.5 -6h483q9 0 15 6t6 14zM286 412q-8 0 -14.5 -6.5t-6.5 -14.5t6.5 -14.5t14.5 -6.5h231q11 23 26 42h-257z
M265 184q0 -9 6.5 -15t14.5 -6h243q-12 21 -21 41h-222q-8 0 -14.5 -6t-6.5 -14v0z" />
    <glyph glyph-name="hongjiuchengicondaifahuo" unicode="&#xe654;" 
d="M171 765q-66 0 -113.5 -47.5t-47.5 -114t47.5 -114.5t115 -48t114 47.5t46.5 114.5v0q0 67 -47 114.5t-115 47.5zM171 481q-50 0 -86 36t-36 86.5t36 86.5t86 36q51 0 87 -36t36 -87t-36 -86.5t-87 -35.5v0zM189 704h-33v-86v-19v-16h124v35h-91v86zM1019 413l-153 193
q-8 8 -19 8h-198v24q0 24 -17 43l-3 3q-19 19 -46 19h-223q10 -17 18 -47h206q7 0 13 -6l2 -2q4 -4 4 -11v-479h-184q-10 46 -46 74v0l-4 4v0q-29 20 -65 21.5t-67 -16.5v2l-15 -14l-3 -1l-2 -1v0q-31 -26 -39 -68h-36q-8 0 -13 5.5t-5 13.5v217q-26 7 -48 17v-234
q0 -27 19.5 -46.5t46.5 -19.5v0h36q8 -40 39 -69v0l3 -3v0l16 -13v2q27 -16 58 -17t58 13v-3l14 11l2 1l4 3v0q37 27 47 74h265q9 -42 42 -70t76 -29v-1l11 1h4h4v0q39 6 67.5 33t36.5 65h45q22 0 37.5 16t15.5 38v235q1 7 -4 14zM355 86l-1 -1q-20 -23 -51.5 -25t-54.5 19
q-7 5 -14 16l-1 1q-12 18 -11.5 40t12.5 40v0q16 27 47 33.5t57 -10.5q10 -7 16 -15v0q19 -21 19 -49t-18 -49v0zM820 61l-8 -1h-6q-31 2 -52 25.5t-19 53.5q1 29 21 49t49 23l7 -1q31 -4 51 -27.5t17 -54.5q-2 -24 -18.5 -42.5t-41.5 -24.5v0zM976 166q0 -5 -5 -7v0h-44
q-8 39 -36.5 65.5t-67.5 32.5v1h-9h-3l-7 1v0q-44 -1 -77.5 -29t-41.5 -71h-35v408h186l30 -38h-85q-23 0 -39 -15.5t-16 -38.5v-95q0 -23 16 -39t39 -16h196zM976 373h-197q-6 0 -6 6v95q0 7 8 7h123l72 -91v-17z" />
    <glyph glyph-name="huo" unicode="&#xe641;" 
d="M568 -54q-15 0 -26.5 10.5t-12.5 26.5q-2 16 9 28.5t27 14.5q11 1 32.5 9.5t32.5 14.5q109 60 165 131q54 68 58 145q5 95 -61 201q-2 3 -4 5q-20 -33 -48 -56q-30 -26 -68 -14v0q-38 11 -49 50q-30 105 -88 178q-18 23 -38 42q-12 -58 -40 -117q-29 -63 -152 -217
q-10 -12 -12 -14q-8 -12 -22.5 -16t-27.5 2.5t-19 20t-2 27.5q1 3 2 13q1 13 2 21q-1 0 -2 2q-7 -14 -16 -30q-36 -62 -37 -113q-1 -80 37 -147q28 -50 78 -90q26 -21 58 -26.5t60 6.5q34 14 57 39t24 54q0 12 -4 22q-9 24 9 42q12 12 28.5 12t28.5 -11q9 -9 14 -30
q4 -17 4 -35v0q-1 -61 -45 -109q-35 -38 -86 -58q-48 -20 -101.5 -11.5t-96.5 43.5q-62 49 -98 113q-48 85 -47 187q1 72 48 152q24 41 29 80q2 16 15 26t29 9q14 -1 24 -11t11 -24q9 -14 40 -39q77 101 98 144q39 82 40 158q1 23 21 34t40 -1q62 -38 112 -100
q65 -82 99 -196q27 28 40 67q2 6 3 11q6 24 30 29.5t40 -13.5q27 -33 50 -69q79 -127 73 -247q-6 -103 -75 -190q-66 -84 -189 -153q-5 -2 -17 -8t-37 -14.5t-43 -10.5h-4zM482 167q1 -1 2 -3q-1 2 -2 3z" />
    <glyph glyph-name="iconwuliu" unicode="&#xe66f;" 
d="M900 501q-48 -109 -133 -184q-16 -14 -32 -26q-4 -58 -46 -117q-35 -50 -96 -100q-66 -53 -138 -90q-5 -2 -10 -2q-11 0 -18 9q-11 16 2 29q21 21 42 58q36 64 40 132q-40 16 -98.5 74.5t-74.5 98.5q-68 -4 -132 -40q-37 -21 -58 -42q-6 -6 -16 -6q-7 0 -13 4
q-15 11 -7 28q37 72 91 138q49 61 99 96q59 42 117 46q12 17 26 32q75 85 184 133q133 59 307 59v0h23v-22q0 -175 -59 -308zM683 257q-67 -38 -127 -49q-4 -68 -35 -132q133 92 162 181zM204 393q64 31 132 35q11 60 49 127q-89 -29 -181 -162zM479 609q-37 -41 -62 -90
t-32 -75t-7 -38q0 -9 18 -34q18 -26 48 -56t56 -49q25 -17 34 -17q12 0 38 7t74.5 32t90.5 61v0q170 150 177 436q-286 -7 -435 -177zM668.5 429q-46.5 0 -79 32.5t-32.5 79t32.5 79t79 32.5t79 -32.5t32.5 -79t-32.5 -79t-79 -32.5zM668.5 607q-27.5 0 -47.5 -19.5t-20 -47
t20 -47.5t47.5 -20t47 20t19.5 47.5t-19.5 47t-47 19.5zM281 252q37 0 68 -31q39 -39 29 -86q-22 -102 -283 -197q-3 -1 -7 -1v0q-10 0 -16 7q-10 10 -5 23q103 285 214 285zM269 71q58 39 65 73q6 23 -16 45q-18 18 -37 18h1q-34 0 -76 -56q-40 -54 -80 -153q90 36 143 73z
" />
    <glyph glyph-name="shipin" unicode="&#xe622;" 
d="M921 384q0 111 -54.5 205.5t-149 149t-205.5 54.5t-205.5 -54.5t-149 -149t-54.5 -205.5t54.5 -205.5t149 -149t205.5 -54.5q136 0 246 84q5 5 5 11q0 8 -5.5 13.5t-12.5 5.5q-8 0 -13 -6v0q-99 -72 -220 -72q-100 0 -185.5 49.5t-135 135t-49.5 186t49.5 186t135 135
t186 49.5t186 -49.5t135 -135t49.5 -186.5q0 -93 -42 -173v0q-1 -4 -1 -5q0 -8 5.5 -13t12.5 -5q13 0 17 12v0q46 89 46 187zM712 453l-257 147q-24 15 -48 15q-29 0 -50 -21.5t-21 -61.5v-296q0 -41 21 -62t50 -21q24 0 48 14l257 148q46 26 46 69q0 42 -46 69zM691 359
l-265 -153q-14 -8 -24 -8q-20 0 -20 33v306q0 33 20 33q10 0 24 -7l265 -154q21 -12 21 -25q0 -12 -21 -25z" />
    <glyph glyph-name="top" unicode="&#xe88e;" 
d="M943 699h-862q-7 0 -12 -5t-5 -12v-33q0 -7 5 -12t12 -5h862q7 0 11.5 5t4.5 12v33q0 7 -4.5 12t-11.5 5v0zM530 560q-8 7 -18 3q-10 4 -18 -3l-424 -439q-11 -12 0 -23l24 -23q11 -12 23 0l395 409l395 -409q11 -12 23 0l23 23q5 5 5 11.5t-5 11.5zM530 560z" />
    <glyph glyph-name="app" unicode="&#xe623;" 
d="M128 307v103q0 6 5.5 12.5t13.5 6.5h186l-83 -141h-103q-6 0 -12.5 5.5t-6.5 13.5v0zM262 96l-57 -38q-10 -5 -11.5 -4.5t-1.5 10.5l6 64q0 6 5 8t15 -2l44 -25v-13v0zM275 134l-45 26q-12 13 -6 26l211 364q13 7 19 0l45 -25q9 -5 10.5 -10.5t-3.5 -15.5l-212 -365
q0 -4 -7 -4t-12 4v0zM435 288l77 141h45l64 -141h-186v0zM691 250q-9 4 -60 113.5t-68 154.5q-5 12 -11 24t-14 29t-15 33.5t-14 34t-12 32.5t-7.5 27.5t-2 20.5t5.5 11q6 2 18 -11t29.5 -42t28.5 -49.5t31 -56.5q6 -10 8 -14q26 -41 85 -149t62 -114q9 -12 -1.5 -24.5
t-23.5 -19.5q-2 -1 -5.5 -3t-5 -2.5l-4.5 -1.5t-5 -1t-5 0.5t-6.5 2.5t-7.5 5v0zM755 154l-25 44q-4 6 -2 13t8 13l26 13q5 4 12.5 1.5t12.5 -8.5l19 -38q4 -6 2 -13t-8 -13l-19 -12q-6 -6 -11 -7t-8 0.5t-7 6.5v0zM851 38q-3 10 -31.5 21t-38.5 24q-23 30 6 45
q56 37 64 -45v-45v0zM896 307q0 -6 -5.5 -12.5t-13.5 -6.5h-90q0 13 -6 13q0 2 -1 4t-2.5 4.5t-3.5 5.5t-5.5 8t-6.5 10q-13 25 -52 89h160q6 0 13 -5t7 -14l6 -96v0v0v0z" />
    <glyph glyph-name="shipin2" unicode="&#xe624;" 
d="M909 543q-1 6 -6 10l-262 243h-467q-27 0 -46 -19t-19 -47v-689q0 -27 19 -46t46 -19h672q27 0 46.5 19t19.5 46v493q0 5 -3 9zM656 723l177 -164h-155q-9 0 -15.5 6.5t-6.5 15.5v142zM846 20h-672q-9 0 -15 6t-6 15v689q0 9 6 15.5t15 6.5h438v-171q0 -27 19.5 -46.5
t46.5 -19.5h190v-474q0 -9 -6.5 -15t-15.5 -6zM207 684h73v-73h-73v73zM206 552h73v-73h-73v73zM209 420h72v-72h-72v72zM208 288h73v-72h-73v72zM210 157h72v-73h-72v73zM743 417h73v-73h-73v73zM742 285h73v-73h-73v73zM744 153h73v-73h-73v73zM639 426l-180 103
q-14 9 -28 9q-19 0 -30.5 -14t-11.5 -35v-208q0 -21 11.5 -34.5t30.5 -13.5q14 0 28 8l180 103q26 16 26 41.5t-26 40.5zM617 382l-180 -104q-2 -1 -4 -1q-1 2 -1 4v208q0 3 1 5l4 -2l180 -104q2 -1 4 -3q-2 -1 -4 -3z" />
    <glyph glyph-name="finished" unicode="&#xe651;" 
d="M269 589h486q5 0 9 3.5t4 9.5v8q0 5 -4 9t-9 4h-486q-5 0 -9 -4t-4 -9v-8q0 -6 4 -9.5t9 -3.5zM666 454v9q0 5 -4 8.5t-9 3.5h-384q-5 0 -9 -3.5t-4 -8.5v-9q0 -5 4 -9t9 -4h384q5 0 9 3.5t4 9.5zM269 179q-5 0 -9 -3.5t-4 -9.5v-8q0 -5 4 -9t9 -4h196q5 0 9 4t4 9v8
q0 6 -4 9.5t-9 3.5h-196zM546 305v9q0 5 -4 9t-9 4h-264q-5 0 -9 -4t-4 -9v-9q0 -5 4 -8.5t9 -3.5h264q5 0 9 3.5t4 8.5zM814 190q-9 9 -18 0l-51 -51q-6 -6 -12 0l-27 27q-9 9 -18 0l-6 -6q-9 -9 0 -17l39 -40q8 -7 18.5 -7t17.5 7l63 63q9 9 0 18zM751 333q-78 0 -133 -55
t-55 -133t55 -133t133 -55t133 55t55 133t-55 133t-133 55zM751 -9q-63 0 -108.5 45.5t-45.5 108.5t45.5 108.5t108.5 45.5t108.5 -45.5t45.5 -108.5t-45.5 -108.5t-108.5 -45.5zM853 811h-682q-36 0 -61 -25t-25 -61v-682q0 -36 25 -61t61 -25h462q-20 12 -42 34h-403
q-28 0 -48.5 20.5t-20.5 48.5v648q0 28 20.5 48.5t48.5 20.5h648q28 0 48.5 -20.5t20.5 -48.5v-403q22 -22 34 -41v461q0 36 -25 61t-61 25z" />
    <glyph glyph-name="air4" unicode="&#xe65d;" 
d="M747 -46q-20 0 -33 7t-17 14l-3 7l-163 309l-122 -121v-148l-81 -67l-41 202l-203 80l67 68h136l108 107l-298 175q-2 1 -4.5 2.5t-8 8t-8.5 13.5t-1.5 19t9.5 24q9 17 47 17l34 -3l393 -81l190 188q4 5 10.5 11t27 17t41.5 11q43 0 84 -39q24 -23 33.5 -46.5t4.5 -41
t-13 -31.5t-17 -21l-8 -8l-190 -201l81 -417v-5.5t-2 -12t-5.5 -15.5t-12 -13.5t-20.5 -7.5q-8 -1 -15 -1v0zM747 -4h10l1 1v0q2 2 3 8l-81 413q-4 21 11 36l189 202q3 3 6 5q1 0 5.5 4.5t10.5 14t6 19.5q2 20 -26 46q-29 27 -55 27q-12 0 -23.5 -5.5t-17.5 -11.5l-6 -6
l-3 -3l-190 -188q-12 -12 -29 -12h-8l-393 81v0q-14 2 -26 2q-9 0 -15 -1v-2l-1 -1q1 -1 2 -1v0v0l1 -1l298 -175q18 -10 20.5 -30.5t-12.5 -34.5l-108 -108q-12 -12 -29 -12h-119l-10 -10l144 -58q21 -8 26 -30l27 -134l12 11v128q0 17 13 30l122 121q12 12 29 12q3 0 6 -1
q21 -3 31 -21l162 -310q1 -2 2 -2q4 -3 15 -3v0v0z" />
    <glyph glyph-name="bianji2" unicode="&#xe664;" 
d="M883 821l-34 -33q-13 -13 -13 -31t13 -31t31 -13t31 13l33 34q13 12 13 30.5t-13 30.5q-8 13 -28.5 13t-32.5 -13zM332.5 220.5q12.5 -12.5 30.5 -12.5t31 12l410 410q13 13 13 31.5t-13 31t-31 12.5t-31 -13l-410 -410q-12 -12 -12 -30.5t12.5 -31zM175 833
q-46 0 -79 -33t-33 -80v-674q0 -46 33 -79t79 -33h674q46 0 79 33t33 79v461q0 12 -7.5 20t-20 8t-20.5 -8t-8 -20v0v0v-461q0 -25 -15.5 -40.5t-40.5 -15.5h-674q-25 0 -40.5 15.5t-15.5 40.5v674q0 26 15.5 41t40.5 15h455v0q13 0 20.5 8t7.5 20.5t-7.5 20.5t-20.5 8v0v0
h-455z" />
    <glyph glyph-name="paid" unicode="&#xe652;" 
d="M450 138q-25 -2 -50 -2q-129 0 -217 41t-88 90v81q39 -43 121.5 -69t183.5 -26q35 0 69 3q7 16 16 31q-42 -5 -85 -5q-129 0 -217 41t-88 90v80q39 -42 121.5 -68.5t183.5 -26.5t183.5 26.5t121.5 68.5v-80v0h1q14 0 28 -2v293q0 43 -44.5 80t-121.5 58.5t-168 21.5
t-168 -21.5t-121.5 -58.5t-44.5 -80v-437q0 -43 44.5 -80t121.5 -58.5t168 -21.5q27 0 53 2q-2 15 -3 29v0zM400 835q129 0 217 -41t88 -90t-88 -90t-217 -41t-217 41t-88 90t88 90t217 41v0zM95 639q39 -43 121.5 -69t183.5 -26t183.5 26t121.5 69v-81q0 -49 -88 -90
t-217 -41t-217 41t-88 90v81zM886 324q-71 72 -173 72t-174 -72t-72 -174t72 -174t174 -72t173.5 72t71.5 174t-72 174v0zM870 -8q-65 -64 -157.5 -64t-157.5 64.5t-65 155.5t65 155.5t157.5 64.5t157.5 -64.5t65 -156t-65 -155.5v0v0zM673 76l-69 72l-23 -24l79 -82l1 1
l10 -13l173 177l-19 24zM673 76z" />
    <glyph glyph-name="xiaofeiji" unicode="&#xe638;" 
d="M512 -48l-153 287l-279 165l864 412zM735 649l-510 -250l151 -84zM434 254l78 -148l263 503z" />
    <glyph glyph-name="zhanghu" unicode="&#xe605;" 
d="M908 -96q-9 0 -16.5 7.5t-7.5 16.5q0 156 -108 264q-18 18 0 36t36 0q59 -59 92.5 -137.5t33.5 -162.5q-12 -24 -30 -24v0zM512 300v0q-146 0 -264 -108q-108 -108 -108 -264q0 -9 -7.5 -16.5t-16.5 -7.5t-16.5 7.5t-7.5 16.5q0 174 126 300q75 75 174 102
q-73 37 -117.5 104.5t-44.5 147.5q0 117 82.5 199.5t199.5 82.5t199.5 -82.5t82.5 -199.5t-82.5 -199.5t-199.5 -82.5v0zM512 816q-94 0 -164 -70t-70 -164q0 -95 67 -164.5t161 -69.5h6v0q94 0 164 70t70 164q0 99 -67.5 166.5t-166.5 67.5v0z" />
    <glyph glyph-name="air" unicode="&#xe64b;" 
d="M858 731l-29 27q-6 2 -15.5 4t-33 -2.5t-40.5 -20.5l-143 -146l-403 58l-51 -46l299 -173l-109 -108l-184 -12l-35 -13l188 -104l100 -189l14 35l12 176q310 316 430 437q8 9 11 20t1.5 20.5t-4.5 18t-5 13.5l-3 5v0zM552 321l149 -279l40 44l-41 370l-148 -135v0z
M552 321z" />
    <glyph glyph-name="renwu" unicode="&#xe625;" 
d="M848 767h-50v-36h14q28 0 47.5 -20t19.5 -49v-712q0 -29 -19.5 -49t-47.5 -20h-559q-27 0 -46.5 20t-19.5 49v712q0 29 19.5 49t46.5 20h11v36h-44q-31 0 -52.5 -22t-21.5 -53v-773q0 -31 21.5 -53t52.5 -22h628q31 0 52.5 22t21.5 53v773q0 31 -21.5 53t-52.5 22z
M287 511h225v-47h-225v47zM763 13h-470v48h470v-48v0zM763 165h-470v46h470v-46v0zM765 315h-478v47h478v-47zM493 829q0 16 11.5 27t27 11t27 -11t11.5 -27q0 -5 -2 -11h73q0 44 -31.5 75t-75.5 31t-75 -31t-31 -75h67q-2 5 -2 11v0zM569 837v-48h111v-77h-285v77h99v48
h-172v-173h423v173h-176z" />
    <glyph glyph-name="meiyuan" unicode="&#xe628;" 
d="M513 815q-117 0 -216.5 -57.5t-157 -157t-57.5 -216.5t57.5 -216.5t157 -157t216.5 -57.5t216.5 57.5t157.5 157t58 216.5t-58 216.5t-157.5 157t-216.5 57.5zM513 0q-104 0 -192.5 51.5t-140 140t-51.5 192.5t51.5 192.5t140 140t193 51.5t193 -51.5t140 -140
t51.5 -192.5t-51.5 -192.5t-140 -140t-193.5 -51.5v0zM554 411h-9v133h92q12 0 20 8t8 19.5t-8 19.5t-20 8h-92v89q0 11 -7.5 19t-19 8t-19.5 -8t-8 -19v-89h-18q-50 0 -85.5 -35.5t-35.5 -85.5t35.5 -85.5t85.5 -35.5h18v-133h-102q-11 0 -19 -8t-8 -19.5t8 -19.5t19 -8
h102v-89q0 -11 8 -19t19 -8t19 8t8 19v89h9q50 0 85.5 35.5t35.5 85.5t-35.5 85.5t-85.5 35.5zM406 477.5q0 27.5 19.5 47t47.5 19.5h18v-133h-18q-28 0 -47.5 19.5t-19.5 47zM554 224h-9v133h9q27 0 46.5 -19.5t19.5 -47t-19.5 -47t-46.5 -19.5v0z" />
    <glyph glyph-name="pay1" unicode="&#xe655;" 
d="M799 -4h-639q-40 0 -68 28t-28 68v578q0 40 28 68t68 28h642q40 0 68 -28t28 -68v-94q0 -13 -9 -22.5t-22.5 -9.5t-23 9.5t-9.5 22.5v94q0 13 -9 22.5t-23 9.5h-642q-13 0 -22.5 -9.5t-9.5 -22.5v-578q0 -14 9.5 -23t22.5 -9h639q14 0 23 9t9 23v98q0 14 9.5 23t23 9
t22.5 -9t9 -23v-98q0 -40 -28 -68t-68 -28zM661 382zM630 382q0 13 9.5 22t22 9t22 -9t9.5 -22t-9.5 -22t-22 -9t-22 9t-9.5 22zM896 256h-320q-26 0 -45 19t-19 45v128q0 26 19 45t45 19h320q26 0 45 -19t19 -45v-128q0 -26 -19 -45t-45 -19zM576 448v-128h320v128h-320z
" />
    <glyph glyph-name="yifahuo" unicode="&#xe656;" horiz-adv-x="1315" 
d="M316.5 325q-105.5 0 -180 74.5t-74.5 180t74.5 180t180 74.5t180 -74.5t74.5 -180t-74.5 -180t-180 -74.5zM316.5 795q-89.5 0 -152.5 -63t-63 -152t63 -152.5t152.5 -63.5t152.5 63.5t63 152.5t-63 152t-152.5 63zM185.5 592q5.5 6 13.5 6t14 -6l83 -83q6 -6 6 -14
t-6 -13.5t-14 -5.5t-14 5l-83 83q-5 6 -5 14t5.5 14zM459.5 642.5q5.5 -5.5 5.5 -13.5t-5 -14l-139 -138q-6 -6 -14 -6t-13.5 5.5t-5.5 14t5 13.5l139 139q6 5 14 5t13.5 -5.5zM639 71h-166q0 19 -7 39h185q32 0 54.5 22.5t22.5 54.5v434q0 32 -22.5 54t-54.5 22h-99
q-8 20 -21 40h108q53 0 90.5 -37.5t37.5 -90.5v-410q0 -53 -37.5 -90.5t-90.5 -37.5zM238 71h-9q-53 0 -90.5 37.5t-37.5 90.5v266q17 -27 39 -49v-229q0 -32 22.5 -54t54.5 -22h29q-8 -21 -8 -40zM963 -66q-57 0 -97 40t-40 97t40 97t97 40t97 -40t40 -97t-40 -97t-97 -40z
M963.5 169q-40.5 0 -69.5 -28.5t-29 -69.5t29 -69.5t69.5 -28.5t69 28.5t28.5 69.5t-28.5 69.5t-69 28.5zM356 -66q-57 0 -97 40t-40 97t40 97t97 40t97 -40t40 -97t-40 -97t-97 -40zM356 169q-41 0 -69.5 -28.5t-28.5 -69.5t28.5 -69.5t69.5 -28.5t69.5 28.5t28.5 69.5
t-28.5 69.5t-69.5 28.5zM1080 71q0 1 0.5 4.5t0.5 5.5q0 13 -5 29h142v-39h-138zM865 81q0 -2 0.5 -5.5t0.5 -4.5h-177v39h181q-5 -16 -5 -29zM1198 404q8 0 14 -6t6 -14v-293q0 -8 -6 -14t-14 -6t-14 6t-6 14v293q0 8 6 14t14 6zM728 619h313v-39h-313v39zM1105 502h-130
q-21 0 -36 -15t-15 -36v-55q0 -21 15 -36t36 -15h133q21 0 36 15t15 36v12l20 -34l16 10q-8 -34 -35.5 -56t-63.5 -22h-109q-43 0 -73 30t-30 72v31q0 42 30 72t73 30h95zM1008 596l31 23l164 -219l-31 -24z" />
    <glyph glyph-name="fahuo" unicode="&#xe657;" 
d="M684 331v-132q0 -5 3.5 -9t9.5 -4h132q5 0 9 4t4 9.5t-4 9.5t-9 4h-119v118q0 6 -4 9.5t-9.5 3.5t-9 -3.5t-3.5 -9.5zM855 542q32 0 55.5 23.5t23.5 55.5v106q0 32 -23.5 55.5t-55.5 23.5h-686q-32 0 -55.5 -23.5t-23.5 -55.5v-106q0 -32 23.5 -55.5t55.5 -23.5h14v-433
q0 -17 12 -29t30 -12h274v0q33 -49 85 -77.5t113 -28.5q98 0 167.5 69.5t69.5 167.5q0 56 -24.5 105t-67.5 83v155h13zM908 199.5q0 -87.5 -62 -149.5t-149.5 -62t-149 62t-61.5 149.5t61.5 149t149 61.5t149.5 -61.5t62 -149zM697 437q-99 0 -168.5 -69.5t-69.5 -168.5
q0 -55 25 -105h-259q-7 0 -11.5 4.5t-4.5 10.5v433l607 -1v-137q-56 33 -119 33zM169 569q-22 0 -37.5 15t-15.5 37v106q0 22 15.5 37.5t37.5 15.5h686q22 0 37.5 -15.5t15.5 -37.5v-106q0 -22 -15.5 -37t-37.5 -15h-686z" />
    <glyph glyph-name="applications" unicode="&#xe65f;" 
d="M948 565l-192 -193q-13 -13 -32 -13t-32 13l-192 193q-13 13 -13 31.5t13 32.5l192 192q13 13 32 13t32 -13l192 -192q13 -14 13 -32.5t-13 -31.5zM724 786l-189 -190l189 -189l190 189zM387 -66h-275q-21 0 -35.5 14.5t-14.5 35.5v275q0 21 14.5 35.5t35.5 14.5h275
q21 0 35.5 -14.5t14.5 -35.5v-275q0 -21 -14.5 -35.5t-35.5 -14.5zM387 259h-275v-275h275v275zM387 384h-275q-21 0 -35.5 14.5t-14.5 35.5v275q0 20 14.5 35t35.5 15h275q21 0 35.5 -15t14.5 -35v-275q0 -21 -14.5 -35.5t-35.5 -14.5zM387 709h-275v-275h275v275zM562 309
h275q21 0 35.5 -14.5t14.5 -35.5v-275q0 -21 -14.5 -35.5t-35.5 -14.5h-275q-21 0 -35.5 14.5t-14.5 35.5v275q0 21 14.5 35.5t35.5 14.5zM562 -16h275v275h-275v-275z" />
    <glyph glyph-name="upload3" unicode="&#xe64c;" horiz-adv-x="1033" 
d="M627 337v-210h-215v210h-85l197 197l197 -197h-94zM519 -66q92 0 175.5 35.5t143.5 96t95.5 143.5t35.5 175t-35.5 175t-95.5 143.5t-143.5 96t-175 35.5t-175 -35.5t-143.5 -96t-96 -143.5t-36 -175t36 -175t96 -143.5t143.5 -96t174.5 -35.5v0zM305 598q0 9 6.5 15.5
t14.5 6.5h387q8 0 14.5 -6.5t6.5 -15.5t-6.5 -15t-14.5 -6h-387q-8 0 -14.5 6t-6.5 15v0z" />
    <glyph glyph-name="jinxing" unicode="&#xe662;" 
d="M434 797q-13 0 -23 9.5t-10 23t10 23t23 9.5h183q13 0 22.5 -9.5t9.5 -23t-9.5 -23t-22.5 -9.5h-183zM272 558v0q-10 0 -17 7.5t-7 17.5t7 17t17 7h246q10 0 17.5 -7t7.5 -17t-7.5 -17.5t-17.5 -7.5v0h-246zM272 323q-10 0 -17 7t-7 17t7 17.5t17 7.5h246v0
q10 0 17.5 -7.5t7.5 -17.5t-7.5 -17t-17.5 -7v0h-246zM202 -105q-40 0 -68 27.5t-28 67.5v776q0 40 28 68t68 28h116q13 0 22.5 -9.5t9.5 -23t-9.5 -23t-22.5 -9.5h-116q-13 0 -22 -9t-9 -22v-776q0 -13 9 -22t22 -9h382v-64h-382zM882 291v475q0 13 -9 22t-22 9h-110
q-13 0 -22.5 9.5t-9.5 23t9.5 23t22.5 9.5h110q40 0 68 -28t28 -68v-475h-65zM767 -88q-74 0 -127 53q-53 52 -53 127q0 73 53 126q52 53 127 53q74 0 127 -52.5t53 -126.5t-53 -127q-52 -53 -127 -53v0zM767 232q-58 0 -99.5 -41t-41.5 -99v-1v0q0 -58 41 -99
q42 -41 100 -41t99 41q42 41 42 99v1v0q0 58 -42 99q-41 41 -99 41zM767 48q-15 0 -25 10.5t-10 24.5q0 21 18 31v103h34v-103q12 -6 16 -19l69 5v-34h-71q-10 -18 -31 -18v0z" />
  </font>
</defs>
</svg>
